<svg xmlns="http://www.w3.org/2000/svg" xmlns:xlink="http://www.w3.org/1999/xlink" width="192" height="1152" viewBox="0 0 192 1152">
  <defs>
    <circle id="icon_sprite-b" cx="16" cy="16" r="16"/>
    <path id="icon_sprite-a" d="M8,12 L40,12 L40,36 L8,36 L8,12 Z"/>
    <mask id="icon_sprite-d" width="32" height="24" x="0" y="0" fill="#fff">
      <use xlink:href="#icon_sprite-a"/>
    </mask>
    <circle id="icon_sprite-f" cx="33" cy="24" r="10"/>
    <filter id="icon_sprite-e" width="192.5%" height="192.5%" x="-46.2%" y="-43.8%" filterUnits="objectBoundingBox">
      <feOffset dy=".5" in="SourceAlpha" result="shadowOffsetOuter1"/>
      <feGaussianBlur in="shadowOffsetOuter1" result="shadowBlurOuter1" stdDeviation="3"/>
      <feColorMatrix in="shadowBlurOuter1" values="0 0 0 0 0   0 0 0 0 0   0 0 0 0 0  0 0 0 0.5 0"/>
    </filter>
    <circle id="icon_sprite-h" cx="24" cy="24" r="10"/>
    <filter id="icon_sprite-g" width="147.5%" height="147.5%" x="-23.8%" y="-21.2%" filterUnits="objectBoundingBox">
      <feOffset dy=".5" in="SourceAlpha" result="shadowOffsetOuter1"/>
      <feGaussianBlur in="shadowOffsetOuter1" result="shadowBlurOuter1" stdDeviation="1.5"/>
      <feColorMatrix in="shadowBlurOuter1" values="0 0 0 0 0   0 0 0 0 0   0 0 0 0 0  0 0 0 0.5 0"/>
    </filter>
  </defs>
  <g fill="none" fill-rule="evenodd">
    <g fill="#7F7F7F" fill-rule="nonzero" transform="translate(96 48)">
      <polygon points="22 22 8 22 8 8 22 8"/>
      <polygon points="22 40 8 40 8 26 22 26"/>
      <polygon points="40 22 26 22 26 8 40 8"/>
      <polygon points="40 40 26 40 26 26 40 26"/>
    </g>
    <path fill="#7F7F7F" fill-rule="nonzero" d="M34.647,20.432 C37.853,20.432 40.45,17.833 40.45,14.628 C40.45,11.424 37.853,8.825 34.647,8.825 C31.443,8.825 28.845,11.424 28.845,14.628 C28.844,17.833 31.443,20.432 34.647,20.432 Z M24.735,46.423 L5,46.423 C5,27.568 9.143,18.283 16.857,18.283 C22.1740694,18.283 25.25141,21.2697803 26.649877,30.2851285 C28.3182175,25.1522427 31.054043,22.608 34.768,22.608 C41.297,22.608 43.836,27.927 43.837,46.423 L24.735,46.423 Z M16.713,15.712 C12.927,15.712 9.857,12.643 9.857,8.856 C9.857,5.07 12.927,2 16.713,2 C20.5,2 23.569,5.07 23.569,8.856 C23.569,12.643 20.5,15.712 16.713,15.712 Z" transform="translate(0 48)"/>
    <path fill="#7F7F7F" fill-rule="nonzero" d="M24.811,17.712 C28.598,17.712 31.667,14.643 31.667,10.856 C31.667,7.07 28.598,4 24.811,4 C21.025,4 17.955,7.07 17.955,10.856 C17.955,14.643 21.025,17.712 24.811,17.712 Z M25.112,20.283 C17.283,20.283 10,25.362 10,44.217 L38.765,44.217 C38.765,24.609 32.245,20.283 25.112,20.283 Z" transform="translate(48 48)"/>
    <g transform="translate(0 96)">
      <path fill="#4E4C4B" fill-rule="nonzero" d="M45.369,26.977 C45.888,26.793 46.356,26.194 46.41,25.647 C46.41,25.647 46.501,24.731 46.501,23.751 C46.501,22.771 46.41,21.855 46.41,21.855 C46.356,21.308 45.888,20.709 45.369,20.525 L41.331,19.088 C40.812,18.904 40.238,18.329 40.055,17.811 L39.479,16.418 C39.243,15.921 39.244,15.108 39.48,14.611 L41.318,10.745 C41.554,10.248 41.45,9.504 41.086,9.091 L38.41,6.415 C37.997,6.051 37.253,5.947 36.756,6.183 L32.89,8.021 C32.393,8.257 31.58,8.258 31.083,8.022 L29.689,7.446 C29.171,7.262 28.596,6.688 28.412,6.17 L26.975,2.131 C26.791,1.612 26.192,1.144 25.645,1.09 C25.645,1.09 24.73,1 23.75,1 C22.77,1 21.855,1.09 21.855,1.09 C21.308,1.144 20.709,1.612 20.525,2.131 L19.088,6.17 C18.904,6.689 18.329,7.263 17.811,7.447 L16.417,8.022 C15.92,8.258 15.107,8.257 14.61,8.021 L10.744,6.183 C10.247,5.947 9.503,6.051 9.09,6.415 L6.414,9.091 C6.05,9.504 5.946,10.248 6.182,10.745 L8.02,14.611 C8.256,15.108 8.257,15.921 8.021,16.418 L7.446,17.812 C7.262,18.33 6.688,18.905 6.169,19.089 L2.131,20.525 C1.612,20.709 1.144,21.308 1.09,21.855 C1.09,21.855 1,22.771 1,23.751 C1,24.731 1.09,25.647 1.09,25.647 C1.144,26.194 1.612,26.793 2.131,26.977 L6.169,28.413 C6.688,28.597 7.262,29.172 7.446,29.69 L8.021,31.084 C8.257,31.581 8.256,32.394 8.02,32.891 L6.182,36.757 C5.946,37.254 6.05,37.998 6.414,38.411 L9.09,41.087 C9.503,41.451 10.247,41.555 10.744,41.319 L14.61,39.481 C15.107,39.245 15.92,39.244 16.417,39.48 L17.811,40.055 C18.329,40.239 18.904,40.813 19.088,41.332 L20.525,45.371 C20.709,45.89 21.308,46.358 21.855,46.412 C21.855,46.412 22.77,46.502 23.75,46.502 C24.73,46.502 25.645,46.412 25.645,46.412 C26.192,46.358 26.791,45.89 26.975,45.371 L28.412,41.332 C28.596,40.813 29.171,40.239 29.689,40.055 L31.083,39.48 C31.58,39.244 32.393,39.245 32.89,39.481 L36.756,41.319 C37.253,41.555 37.997,41.451 38.41,41.087 L41.086,38.411 C41.45,37.998 41.554,37.254 41.318,36.757 L39.48,32.891 C39.244,32.394 39.243,31.581 39.479,31.084 L40.054,29.691 C40.238,29.173 40.812,28.598 41.331,28.414 L45.369,26.977 Z M23.751,30.001 C20.3,30.001 17.501,27.203 17.501,23.751 C17.501,20.299 20.299,17.501 23.751,17.501 C27.203,17.501 30.001,20.299 30.001,23.751 C30.001,27.203 27.203,30.001 23.751,30.001 Z"/>
      <path fill="#7F7F7F" fill-rule="nonzero" d="M23.751,12.088 C17.31,12.088 12.088,17.31 12.088,23.751 C12.088,30.192 17.31,35.414 23.751,35.414 C30.192,35.414 35.413,30.192 35.413,23.751 C35.413,17.31 30.191,12.088 23.751,12.088 Z M23.751,28.918 C20.898,28.918 18.584,26.605 18.584,23.751 C18.584,20.897 20.897,18.584 23.751,18.584 C26.605,18.584 28.918,20.897 28.918,23.751 C28.918,26.605 26.605,28.918 23.751,28.918 Z"/>
      <circle cx="23.751" cy="23.751" r="12.186" stroke="#B2B2B2"/>
    </g>
    <path fill="#7F7F7F" fill-rule="nonzero" d="M45.369,26.977 C45.888,26.793 46.356,26.194 46.41,25.647 C46.41,25.647 46.501,24.731 46.501,23.751 C46.501,22.771 46.41,21.855 46.41,21.855 C46.356,21.308 45.888,20.709 45.369,20.525 L41.331,19.088 C40.812,18.904 40.238,18.329 40.055,17.811 L39.479,16.418 C39.243,15.921 39.244,15.108 39.48,14.611 L41.318,10.745 C41.554,10.248 41.45,9.504 41.086,9.091 L38.41,6.415 C37.997,6.051 37.253,5.947 36.756,6.183 L32.89,8.021 C32.393,8.257 31.58,8.258 31.083,8.022 L29.689,7.446 C29.171,7.262 28.596,6.688 28.412,6.17 L26.975,2.131 C26.791,1.612 26.192,1.144 25.645,1.09 C25.645,1.09 24.73,1 23.75,1 C22.77,1 21.855,1.09 21.855,1.09 C21.308,1.144 20.709,1.612 20.525,2.131 L19.088,6.17 C18.904,6.689 18.329,7.263 17.811,7.447 L16.417,8.022 C15.92,8.258 15.107,8.257 14.61,8.021 L10.744,6.183 C10.247,5.947 9.503,6.051 9.09,6.415 L6.414,9.091 C6.05,9.504 5.946,10.248 6.182,10.745 L8.02,14.611 C8.256,15.108 8.257,15.921 8.021,16.418 L7.446,17.812 C7.262,18.33 6.688,18.905 6.169,19.089 L2.131,20.525 C1.612,20.709 1.144,21.308 1.09,21.855 C1.09,21.855 1,22.771 1,23.751 C1,24.731 1.09,25.647 1.09,25.647 C1.144,26.194 1.612,26.793 2.131,26.977 L6.169,28.413 C6.688,28.597 7.262,29.172 7.446,29.69 L8.021,31.084 C8.257,31.581 8.256,32.394 8.02,32.891 L6.182,36.757 C5.946,37.254 6.05,37.998 6.414,38.411 L9.09,41.087 C9.503,41.451 10.247,41.555 10.744,41.319 L14.61,39.481 C15.107,39.245 15.92,39.244 16.417,39.48 L17.811,40.055 C18.329,40.239 18.904,40.813 19.088,41.332 L20.525,45.371 C20.709,45.89 21.308,46.358 21.855,46.412 C21.855,46.412 22.77,46.502 23.75,46.502 C24.73,46.502 25.645,46.412 25.645,46.412 C26.192,46.358 26.791,45.89 26.975,45.371 L28.412,41.332 C28.596,40.813 29.171,40.239 29.689,40.055 L31.083,39.48 C31.58,39.244 32.393,39.245 32.89,39.481 L36.756,41.319 C37.253,41.555 37.997,41.451 38.41,41.087 L41.086,38.411 C41.45,37.998 41.554,37.254 41.318,36.757 L39.48,32.891 C39.244,32.394 39.243,31.581 39.479,31.084 L40.054,29.691 C40.238,29.173 40.812,28.598 41.331,28.414 L45.369,26.977 Z M23.75,31.876 C19.263,31.876 15.625,28.239 15.625,23.751 C15.625,19.264 19.262,15.626 23.75,15.626 C28.237,15.626 31.875,19.264 31.875,23.751 C31.875,28.239 28.238,31.876 23.75,31.876 Z" transform="translate(48 96)"/>
    <g transform="translate(104 104)">
      <mask id="icon_sprite-c" fill="#fff">
        <use xlink:href="#icon_sprite-b"/>
      </mask>
      <use fill="#D8D8D8" xlink:href="#icon_sprite-b"/>
      <g mask="url(#icon_sprite-c)">
        <g transform="translate(-8 -8)">
          <rect width="24" height="24" fill="#F90"/>
          <rect width="24" height="24" y="24" fill="#047CBF"/>
          <rect width="24" height="24" x="24" fill="#820"/>
          <rect width="24" height="24" x="24" y="24" fill="#B0B0B0"/>
        </g>
      </g>
    </g>
    <g fill="#4E4C4B" transform="translate(8 156)">
      <polygon fill-rule="nonzero" points="32 0 33 0 33 24 32 24"/>
      <path fill-rule="nonzero" d="M29,1 L29,23 L1,23 L1,1 L29,1 L29,1 Z M30,0 L0,0 L0,24 L30,24 L30,0 L30,0 Z"/>
    </g>
    <g fill="#4E4C4B" transform="translate(56 156)">
      <path fill-rule="nonzero" d="M14 1L14 23 1 23 1 1 14 1 14 1zM15 0L0 0 0 24 15 24 15 0 15 0zM32 1L32 23 19 23 19 1 32 1 32 1zM33 0L18 0 18 24 33 24 33 0 33 0z"/>
    </g>
    <g fill="#4E4C4B" transform="translate(104 156)">
      <path fill-rule="nonzero" d="M6 1L6 23 1 23 1 1 6 1 6 1zM7 0L0 0 0 24 7 24 7 0 7 0zM32 1L32 23 11 23 11 1 32 1 32 1zM33 0L10 0 10 24 33 24 33 0 33 0z"/>
    </g>
    <g fill="#4E4C4B" transform="translate(152 156)">
      <path fill-rule="nonzero" d="M32,1 L32,23 L4,23 L4,1 L32,1 L32,1 Z M33,0 L3,0 L3,24 L33,24 L33,0 L33,0 Z"/>
      <rect width="1" height="24" fill-rule="nonzero"/>
    </g>
    <g fill="#820" transform="translate(8 204)">
      <polygon fill-rule="nonzero" points="32 0 33 0 33 24 32 24"/>
      <path fill-rule="nonzero" d="M29,23 L1,23 L1,1 L29,1 L29,23 Z M0,0 L0,24 L30,24 L30,0 L0,0 Z"/>
    </g>
    <g fill="#820" transform="translate(56 204)">
      <path fill-rule="nonzero" d="M14 1L14 23 1 23 1 1 14 1 14 1zM15 0L0 0 0 24 15 24 15 0 15 0zM32 1L32 23 19 23 19 1 32 1 32 1zM33 0L18 0 18 24 33 24 33 0 33 0z"/>
    </g>
    <g fill="#820" transform="translate(103 204)">
      <path fill-rule="nonzero" d="M6 1L6 23 1 23 1 1 6 1 6 1zM7 0L0 0 0 24 7 24 7 0 7 0zM32 1L32 23 11 23 11 1 32 1 32 1zM33 0L10 0 10 24 33 24 33 0 33 0z"/>
    </g>
    <g fill="#820" transform="translate(152 204)">
      <path fill-rule="nonzero" d="M32,1 L32,23 L4,23 L4,1 L32,1 L32,1 Z M33,0 L3,0 L3,24 L33,24 L33,0 L33,0 Z"/>
      <rect width="1" height="24" fill-rule="nonzero"/>
    </g>
    <path stroke="#4E4C4B" d="M34.5178146,25.753 C34.5178146,25.753 36.7468146,25.486 35.5668146,26.697 L24.5338146,37.792 C24.5338146,37.792 23.8678146,38.65 23.2648146,37.775 L12.2988146,26.73 C12.2988146,26.73 11.1238146,25.751 13.4338146,25.751 L18.8008146,25.751 L18.7848146,12.105 C18.8908146,9.99600003 21.0568146,10 21.0568146,10 L26.7608146,10.002 C28.9058146,10.072 28.9408146,12.252 28.9408146,12.252 L28.9248146,25.752 L34.5178146,25.753 L34.5178146,25.753 L34.5178146,25.753 Z" transform="translate(0 240)"/>
    <path fill="#4E4C4B" fill-rule="nonzero" d="M34.5164364,25.753 C34.5164364,25.753 36.7454364,25.486 35.5654364,26.697 L24.5324364,37.792 C24.5324364,37.792 23.8664364,38.65 23.2634364,37.775 L12.2984364,26.73 C12.2984364,26.73 11.1244364,25.751 13.4334364,25.751 L18.8004364,25.751 L18.7844364,12.104 C18.8904364,10 21.0564364,10 21.0564364,10 L26.7604364,10.003 C28.9054364,10.073 28.9404364,12.253 28.9404364,12.253 L28.9244364,25.753 L34.5164364,25.753 Z" transform="translate(48 240)"/>
    <polygon fill="#000" fill-rule="nonzero" points="26.278 12 26.278 21.835 36 21.835 36 26.075 26.278 26.075 26.278 36 21.721 36 21.721 26.075 12 26.075 12 21.835 21.722 21.835 21.722 12" transform="translate(0 288)"/>
    <polygon fill="#000" fill-rule="nonzero" points="12 26.24 12 22 36 22 36 26.24" transform="translate(48 288)"/>
    <g transform="translate(4 340)">
      <circle cx="20" cy="20" r="20" fill="#4E4C4B" fill-rule="nonzero"/>
      <path fill="#FFF" fill-rule="nonzero" d="M18.002,23.007 L17.973,22.248 C17.885,20.762 18.381,19.245 19.693,17.67 C20.626,16.563 21.384,15.629 21.384,14.639 C21.384,13.618 20.713,12.948 19.256,12.889 C18.294,12.889 17.127,13.239 16.369,13.764 L15.377,10.584 C16.427,9.973 18.177,9.389 20.247,9.389 C24.096,9.389 25.846,11.518 25.846,13.938 C25.846,16.155 24.476,17.612 23.368,18.837 C22.289,20.032 21.851,21.17 21.88,22.483 L21.88,23.007 L18.002,23.007 L18.002,23.007 Z M17.244,27.031 C17.244,25.486 18.323,24.377 19.839,24.377 C21.414,24.377 22.435,25.486 22.464,27.031 C22.464,28.548 21.414,29.685 19.839,29.685 C18.294,29.686 17.244,28.548 17.244,27.031 Z"/>
    </g>
    <g transform="translate(52 340)">
      <circle cx="20" cy="20" r="20" fill="#047CBF" fill-rule="nonzero"/>
      <path fill="#FFF" fill-rule="nonzero" d="M18.003,23.007 L17.974,22.248 C17.886,20.762 18.382,19.245 19.694,17.67 C20.627,16.563 21.385,15.629 21.385,14.639 C21.385,13.618 20.714,12.948 19.257,12.889 C18.295,12.889 17.128,13.239 16.37,13.764 L15.378,10.584 C16.428,9.973 18.178,9.389 20.248,9.389 C24.097,9.389 25.847,11.518 25.847,13.938 C25.847,16.155 24.477,17.612 23.369,18.837 C22.29,20.032 21.852,21.17 21.881,22.483 L21.881,23.007 L18.003,23.007 L18.003,23.007 Z M17.245,27.031 C17.245,25.486 18.324,24.377 19.84,24.377 C21.415,24.377 22.436,25.486 22.465,27.031 C22.465,28.548 21.415,29.685 19.84,29.685 C18.294,29.686 17.245,28.548 17.245,27.031 Z"/>
    </g>
    <path fill="#4E4C4B" fill-rule="nonzero" d="M18,13.2195348 C18.1537931,13.0731783 18.3294721,13 18.5288116,13 C18.728151,13 18.90383,13.0731783 19.0576231,13.2195348 L29.7699019,23.4894539 C29.923695,23.6409159 30,23.8082616 30,23.9977309 C30,24.1872002 29.923695,24.3590841 29.7699019,24.5054407 L19.0576231,34.7793306 C18.9044216,34.9268217 18.728151,35 18.5288116,35 C18.3294721,35 18.1537931,34.9268217 18,34.7793306 L18,13.2195348 L18,13.2195348 Z" transform="translate(0 384)"/>
    <path fill="#4E4C4B" fill-rule="nonzero" d="M34.7799206,18 C34.9268293,18.1537855 35,18.3300473 35,18.5287855 C35,18.7287066 34.9268293,18.904377 34.7799206,19.0581625 L24.5076574,29.7693218 C24.3601815,29.9231073 24.1905842,30 24,30 C23.8094158,30 23.6398185,29.9231073 23.493477,29.7693218 L13.2206466,19.0581625 C13.0731707,18.904377 13,18.7287066 13,18.5287855 C13,18.3300473 13.0731707,18.1537855 13.2206466,18 L34.7799206,18 Z" transform="translate(48 384)"/>
    <path fill="#7F7F7F" fill-rule="nonzero" stroke="#4E4C4B" stroke-width="1.5" d="M19.7218614,12.75 L10.209931,12.75 C9.40217398,12.75 8.75,13.3991768 8.75,14.2011327 L8.75,34.1188673 C8.75,34.9172332 9.40392725,35.57 10.1994828,35.57 L37.8005172,35.57 C38.6008436,35.57 39.25,34.9192126 39.25,34.1145145 L39.25,20.2980957 C39.25,19.4943969 38.596116,18.8426102 37.7866552,18.8426102 L24.6794904,18.8426102 L19.7218614,12.75 Z" transform="translate(0 432)"/>
    <g fill="#7F7F7F" transform="translate(9 542)">
      <rect width="30" height="2"/>
      <rect width="30" height="2" y="6"/>
      <rect width="30" height="2" y="12"/>
      <rect width="23.226" height="2" y="18"/>
    </g>
    <use stroke="#7F7F7F" stroke-dasharray="2 2 2 2" stroke-width="4" mask="url(#icon_sprite-d)" transform="translate(0 576)" xlink:href="#icon_sprite-a"/>
    <rect width="30" height="22" x="9" y="13" stroke="#7F7F7F" stroke-width="2" transform="translate(48 576)"/>
    <g stroke="#4E4C4B" transform="translate(56 444)">
      <path fill="#FFF" fill-rule="nonzero" stroke-width="1.5" d="M30.947427,7.33476502 L25.1618234,0.75 L2.20993103,0.75 C1.40217398,0.75 0.75,1.39917683 0.75,2.20113273 L0.75,22.1188673 C0.75,22.9172332 1.40392725,23.57 2.19948276,23.57 L29.8005172,23.57 C30.6008436,23.57 31.25,22.9192126 31.25,22.1145145 L31.25,10.7895508 C31.25,9.89087714 31.25,9.89087714 31.25,9.44940677 C31.25,9.18136336 31.25,9.18136336 31.25,9.14982455 C31.25,8.68316327 31.1838868,8.2147399 31.0735722,7.7714034 C31.0278674,7.5877232 30.983055,7.43930837 30.947427,7.33476502 Z"/>
      <path stroke-linecap="square" stroke-width="1.5" d="M22.75 1.5L22.75 8.5M23.5 8.75L30.5 8.75"/>
    </g>
    <g transform="translate(57 542)">
      <rect width="2" height="20" fill="#047CBF"/>
      <rect width="25" height="2" x="5" fill="#7F7F7F"/>
      <rect width="25" height="2" x="5" y="6" fill="#7F7F7F"/>
      <rect width="25" height="2" x="5" y="12" fill="#7F7F7F"/>
      <rect width="19" height="2" x="5" y="18" fill="#7F7F7F"/>
    </g>
    <polygon fill="#047CBF" points="26.505 13 25.433 22.794 35.327 20.028 36 24.838 26.555 25.536 32.685 33.66 28.224 36.053 23.838 27.131 19.925 36.053 15.315 33.66 21.346 25.536 12 24.838 12.723 20.028 22.467 22.794 21.396 13" transform="translate(96 432)"/>
    <g transform="translate(96 528)">
      <path fill="#7F7F7F" d="M14,12 C17.3333333,12 20.6666667,12 24,12 C27.3333333,12 30.6666667,12 34,12 L34,12 C37.3137085,12 40,14.6862915 40,18 C40,20 40,22 40,24 C40,26 40,28 40,30 L40,30 C40,33.3137085 37.3137085,36 34,36 C30.7994792,36 27.5989583,36 24.3984375,36 C20.9322917,36 17.4661458,36 14,36 L14,36 C10.6862915,36 8,33.3137085 8,30 C8,28 8,26 8,24 C8,22 8,20 8,18 L8,18 C8,14.6862915 10.6862915,12 14,12 Z"/>
      <path fill="#FFF" fill-rule="nonzero" d="M20,17.139704 C20.1281609,17.046568 20.2745601,17 20.4406763,17 C20.6067925,17 20.7531917,17.046568 20.8813526,17.139704 L29.8082516,23.675107 C29.9364125,23.7714919 30,23.8779846 30,23.998556 C30,24.1191274 29.9364125,24.2285081 29.8082516,24.3216441 L20.8813526,30.859574 C20.7536846,30.953432 20.6067925,31 20.4406763,31 C20.2745601,31 20.1281609,30.953432 20,30.859574 L20,17.139704 L20,17.139704 Z"/>
    </g>
    <g fill="#7F7F7F" transform="translate(144 432)">
      <polygon fill-rule="nonzero" points="12 16 32 16 32 36 23.124 36 23.124 38 34 38 34 14 10 14 10 25.077 12 25.077" transform="rotate(180 22 26)"/>
      <path d="M18.9426099,3.51218452 L2.18219169,20.2726028 L1.45479446,21 L-1.0658141e-14,19.5452055 L0.72739723,18.8178083 L17.4878155,2.05739006 L6.5982696,2.05739006 L5.56957457,2.05739006 L5.56957457,0 L6.5982696,1.94153754e-15 L19.971305,1.14208091e-16 L21,0 L21,2.05739006 L21,13.3730354 L21,14.4017304 L18.9426099,14.4017304 L18.9426099,13.3730354 L18.9426099,3.51218452 Z" transform="translate(19 8)"/>
    </g>
    <path fill="#7F7F7F" fill-rule="nonzero" d="M32.5,9 L34,9 L34,29.84375 C34,32.3463027 31.6494531,34.375 28.75,34.375 C25.8505469,34.375 23.5,32.3463027 23.5,29.84375 C23.5,27.3411406 25.8505469,25.3125 28.75,25.3125 C30.2191562,25.3125 31.5470781,25.8335937 32.5,26.6730078 L32.5,16.25 L20.5,19.4722285 L20.5,33.46875 C20.5,35.9713027 18.1495,38 15.25,38 C12.3505,38 10,35.9713027 10,33.46875 C10,30.9661406 12.3505,28.9375 15.25,28.9375 C16.7191562,28.9375 18.0470781,29.4585937 19,30.2980078 L19,12.625 L32.5,9 Z" transform="translate(144 528)"/>
    <g transform="translate(0 480)">
      <path stroke="#FFF" stroke-linecap="square" stroke-width="2" d="M9 3L9 42.001M18.935 19.916L18.935 31.918M18.935 42.001L9 42.001M18.935 19.916L9 19.916M29 19.916L19.066 19.916M29 31.918L19.066 31.918"/>
      <circle cx="35.705" cy="19.916" r="3.5" fill="#FFF" fill-rule="nonzero"/>
      <circle cx="35.705" cy="31.918" r="3.5" fill="#FFF" fill-rule="nonzero"/>
      <circle cx="26.08" cy="42.001" r="3.5" fill="#FFF" fill-rule="nonzero"/>
      <path stroke="#FFF" stroke-linecap="square" stroke-width="2" d="M18.935,8.81 L9,8.81"/>
      <circle cx="26.08" cy="8.81" r="3.5" fill="#FFF" fill-rule="nonzero"/>
    </g>
    <g fill="#FFF" fill-rule="nonzero" transform="translate(48 480)">
      <rect width="36" height="4" x="6" y="10"/>
      <rect width="36" height="4" x="6" y="18"/>
      <rect width="36" height="4" x="6" y="26"/>
      <rect width="36" height="4" x="6" y="34"/>
    </g>
    <g transform="translate(168 504)">
      <circle cx="10" cy="10" r="10" fill="#047CBF"/>
      <path fill="#FFF" d="M8.5,13.9803922 L11.5784314,13.9803922 L11.5784314,17 L8.5,17 L8.5,13.9803922 Z M11.4803922,6.456 L10.7156863,12 L9.32352941,12 L8.57843137,6.456 L8.57843137,3 L11.4803922,3 L11.4803922,6.456 Z"/>
    </g>
    <path fill="#FFF" fill-rule="nonzero" d="M43.11325,38.25425 L30.81825,25.98825 C34.24225,20.42525 33.55025,13.05025 28.71925,8.23225 C23.06625,2.58925 13.89525,2.58925 8.24125,8.23225 C2.58625,13.87325 2.58625,23.02325 8.24125,28.66725 C12.53625,33.38625 20.44225,33.89825 25.92925,30.77725 L38.26525,43.08825 C40.04425,44.86225 41.40425,43.69325 42.51925,42.58325 C43.63325,41.47225 44.88925,40.03125 43.11325,38.25425 Z M25.14825,25.04725 C21.43925,28.74425 15.42525,28.74425 11.71725,25.04725 C8.00825,21.34625 8.00825,15.34625 11.71725,11.64625 C15.42525,7.94525 21.43925,7.94525 25.14825,11.64625 C28.85725,15.34625 28.85725,21.34625 25.14825,25.04725 Z" transform="translate(96 480)"/>
    <g stroke="#7F7F7F" stroke-width="2" transform="translate(0 624)">
      <rect width="12" height="22" x="9" y="13"/>
      <rect width="12" height="22" x="27" y="13"/>
    </g>
    <g stroke-width="2" transform="translate(48 624)">
      <rect width="12" height="22" x="9" y="13" stroke="#7F7F7F"/>
      <rect width="12" height="22" x="27" y="13" stroke="#CACACA"/>
    </g>
    <g stroke-width="2" transform="translate(96 624)">
      <rect width="12" height="22" x="9" y="13" stroke="#CACACA"/>
      <rect width="12" height="22" x="27" y="13" stroke="#7F7F7F"/>
    </g>
    <g stroke="#7F7F7F" stroke-width="2" transform="translate(0 672)">
      <rect width="18" height="22" x="9" y="13"/>
      <rect width="6" height="22" x="33" y="13"/>
    </g>
    <g stroke-width="2" transform="translate(48 672)">
      <rect width="18" height="22" x="9" y="13" stroke="#7F7F7F"/>
      <rect width="6" height="22" x="33" y="13" stroke="#CACACA"/>
    </g>
    <g stroke-width="2" transform="translate(96 672)">
      <rect width="18" height="22" x="9" y="13" stroke="#CACACA"/>
      <rect width="6" height="22" x="33" y="13" stroke="#7F7F7F"/>
    </g>
    <g stroke="#7F7F7F" stroke-width="2" transform="translate(0 720)">
      <rect width="6" height="22" x="33" y="13"/>
      <rect width="6" height="22" x="9" y="13"/>
      <rect width="6" height="22" x="21" y="13"/>
    </g>
    <g stroke-width="2" transform="translate(48 720)">
      <rect width="6" height="22" x="33" y="13" stroke="#CACACA"/>
      <rect width="6" height="22" x="9" y="13" stroke="#7F7F7F"/>
      <rect width="6" height="22" x="21" y="13" stroke="#CACACA"/>
    </g>
    <g stroke-width="2" transform="translate(96 720)">
      <rect width="6" height="22" x="33" y="13" stroke="#CACACA"/>
      <rect width="6" height="22" x="9" y="13" stroke="#CACACA"/>
      <rect width="6" height="22" x="21" y="13" stroke="#7F7F7F"/>
    </g>
    <g stroke-width="2" transform="translate(144 720)">
      <rect width="6" height="22" x="33" y="13" stroke="#7F7F7F"/>
      <rect width="6" height="22" x="9" y="13" stroke="#CACACA"/>
      <rect width="6" height="22" x="21" y="13" stroke="#CACACA"/>
    </g>
    <path fill="#4E4C4B" fill-rule="nonzero" d="M1.6832,1.6306 L11.584,10.24 L1.68076,18.85148 C1.43252,18.61636 1.28,18.28208 1.28,17.9112 L1.28,2.56872 C1.28,2.1986 1.43496,1.86544 1.6832,1.63056 L1.6832,1.6306 Z M30.31924,1.62852 C30.56748,1.86364 30.72,2.19792 30.72,2.5688 L30.72,17.91128 C30.72,18.28136 30.56504,18.61456 30.3168,18.84944 L20.416,10.24004 L30.31924,1.62856 L30.31924,1.62852 Z M19.45836,11.07276 L28.8,19.2 L3.2,19.2 L12.54164,11.07276 L16,14.08 L19.45836,11.07276 Z M2.5646,0 C1.1482,0 0,1.14496 0,2.5524 L0,17.9276 C0,19.33724 1.13888,20.48 2.5646,20.48 L29.4354,20.48 C30.8518,20.48 32,19.33504 32,17.9276 L32,2.5524 C32,1.14276 30.86112,2.27373675e-15 29.4354,2.27373675e-15 L2.5646,0 Z M16,12.416 L3.2,1.28 L28.8,1.28 L16,12.416 Z" transform="translate(152 590)"/>
    <g fill="#D8D8D8" stroke="#7F7F7F" stroke-width="2" transform="translate(96 576)">
      <rect width="30" height="30" x="9" y="9"/>
      <rect width="30" height="30" x="9" y="9"/>
    </g>
    <g transform="translate(144 624)">
      <g fill="#7F7F7F" transform="translate(9 14)">
        <rect width="12" height="2" x="18"/>
        <rect width="12" height="2" x="18" y="6"/>
        <rect width="30" height="2" y="12"/>
        <rect width="23.226" height="2" y="18"/>
      </g>
      <rect width="12" height="12" x="9" y="9" fill="#D8D8D8" stroke="#7F7F7F" stroke-width="2"/>
    </g>
    <polygon fill="#FFF" fill-rule="nonzero" points="12 26.24 12 22 36 22 36 26.24" transform="translate(144 288)"/>
    <polygon fill="#FFF" fill-rule="nonzero" points="26.278 12 26.278 21.835 36 21.835 36 26.075 26.278 26.075 26.278 36 21.721 36 21.721 26.075 12 26.075 12 21.835 21.722 21.835 21.722 12" transform="translate(96 288)"/>
    <g transform="translate(0 816)">
      <circle cx="24" cy="24" r="18" fill="#047CBF"/>
      <polygon fill="#FFF" fill-rule="nonzero" stroke="#FFF" points="25.139 15 25.139 22.918 33 22.918 33 25.038 25.139 25.038 25.139 33 22.86 33 22.86 25.038 15 25.038 15 22.918 22.861 22.918 22.861 15"/>
    </g>
    <g stroke="#4E4C4B" transform="translate(48 816)">
      <g transform="translate(12 8)">
        <path fill="#FFF" fill-rule="nonzero" stroke-width="1.5" d="M30.947427,7.33476502 L25.1618234,0.75 L2.20993103,0.75 C1.40217398,0.75 0.75,1.39917683 0.75,2.20113273 L0.75,22.1188673 C0.75,22.9172332 1.40392725,23.57 2.19948276,23.57 L29.8005172,23.57 C30.6008436,23.57 31.25,22.9192126 31.25,22.1145145 L31.25,10.7895508 C31.25,9.89087714 31.25,9.89087714 31.25,9.44940677 C31.25,9.18136336 31.25,9.18136336 31.25,9.14982455 C31.25,8.68316327 31.1838868,8.2147399 31.0735722,7.7714034 C31.0278674,7.5877232 30.983055,7.43930837 30.947427,7.33476502 Z"/>
        <path stroke-linecap="square" stroke-width="1.5" d="M22.75 1.5L22.75 8.5M23.5 8.75L30.5 8.75"/>
      </g>
      <g transform="translate(4 16)">
        <path fill="#FFF" fill-rule="nonzero" stroke-width="1.5" d="M30.947427,7.33476502 L25.1618234,0.75 L2.20993103,0.75 C1.40217398,0.75 0.75,1.39917683 0.75,2.20113273 L0.75,22.1188673 C0.75,22.9172332 1.40392725,23.57 2.19948276,23.57 L29.8005172,23.57 C30.6008436,23.57 31.25,22.9192126 31.25,22.1145145 L31.25,10.7895508 C31.25,9.89087714 31.25,9.89087714 31.25,9.44940677 C31.25,9.18136336 31.25,9.18136336 31.25,9.14982455 C31.25,8.68316327 31.1838868,8.2147399 31.0735722,7.7714034 C31.0278674,7.5877232 30.983055,7.43930837 30.947427,7.33476502 Z"/>
        <path stroke-linecap="square" stroke-width="1.5" d="M22.75 1.5L22.75 8.5M23.5 8.75L30.5 8.75"/>
      </g>
    </g>
    <g transform="translate(96 816)">
      <g transform="translate(8 6)">
        <path fill="#FFF" fill-rule="nonzero" stroke="#4E4C4B" stroke-width="2" d="M3.08033607,7 L5,31.8181818 C5,32.4658971 5.53410293,33 6.18181818,33 L25.8181818,33 C26.4658971,33 27,32.4658971 27.002987,31.7409484 L28.9195393,7 L3.08033607,7 Z"/>
        <path fill="#4E4C4B" fill-rule="nonzero" d="M30.1538462,5 C31.1692308,5 32,5.675 32,6.5 L32,8 L0,8 L0,6.5 C0,5.675 0.830769231,5 1.84615385,5 L9.84615385,5 L9.84615385,1.5 C9.84615385,0.675 10.6769231,0 11.6923077,0 L20.3076923,0 C21.3230769,0 22.1538462,0.675 22.1538462,1.5 L22.1538462,5 L30.1538462,5 Z M12,2 L12,5 L20,5 L20,2 L12,2 Z"/>
      </g>
      <polygon fill="#820" fill-rule="nonzero" points="25.139 19 25.139 24.918 31 24.918 31 27.038 25.139 27.038 25.139 33 22.86 33 22.86 27.038 17 27.038 17 24.918 22.861 24.918 22.861 19" transform="rotate(45 24 26)"/>
    </g>
    <g stroke="#000">
      <path fill="#FCFCFC" fill-opacity=".5" stroke-width="1.5" d="M28.2565778,10.8315945 L13.1382557,21.8156985 L18.9129409,39.5883521 L37.6002147,39.5883521 L43.3748999,21.8156985 L28.2565778,10.8315945 Z" transform="rotate(36 28.257 25.121)"/>
      <path fill="#FFF" fill-opacity=".4" stroke-width="3" d="M18.856511,6.85410197 L3.61986672,17.924172 L9.43974695,35.8359216 L28.273275,35.8359216 L34.0931552,17.924172 L18.856511,6.85410197 Z"/>
    </g>
    <path fill="#000" d="M40.2639678,15.4016504 L20.3765895,35.2890287 L17.7249391,32.6373782 L37.6123173,12.75 L40.2639678,15.4016504 Z M10.4329004,20.0420387 L20.3765895,29.9857278 L17.7249391,32.6373782 L7.78125,22.6936891 L10.4329004,20.0420387 Z" transform="translate(0 864)"/>
    <path fill="#FFF" d="M40.2639678,15.4016504 L20.3765895,35.2890287 L17.7249391,32.6373782 L37.6123173,12.75 L40.2639678,15.4016504 Z M10.4329004,20.0420387 L20.3765895,29.9857278 L17.7249391,32.6373782 L7.78125,22.6936891 L10.4329004,20.0420387 Z" transform="translate(96 864)"/>
    <rect width="29" height="29" x="9.5" y="9.5" fill="#FFF" stroke="#7F7F7F" stroke-width="3" rx="6" transform="translate(144 864)"/>
    <rect width="29" height="29" x="9.5" y="9.5" stroke="#7F7F7F" stroke-width="3" rx="6" transform="translate(48 864)"/>
    <g transform="translate(0 912)">
      <path fill="#047CBF" d="M0,24 C0,16.2680135 6.2680135,10 14,10 C14.6023794,10 33.3067116,10 33.9090909,10 C41.6410774,10 47.9090909,16.2680135 47.9090909,24 C47.9090909,31.7319865 41.6410774,38 33.9090909,38 L13.8160511,38 C6.16884452,37.9003433 0,31.6705771 0,24 Z"/>
      <use fill="#000" filter="url(#icon_sprite-e)" xlink:href="#icon_sprite-f"/>
      <use fill="#FFF" xlink:href="#icon_sprite-f"/>
    </g>
    <g transform="translate(48 912)">
      <path fill="#FFF" stroke="#CACACA" stroke-width="1.5" d="M0.75,24 C0.75,31.2527006 6.58150458,37.1556573 13.8160511,37.25 L33.9090909,37.25 C41.2268638,37.25 47.1590909,31.3177729 47.1590909,24 C47.1590909,16.6822271 41.2268638,10.75 33.9090909,10.75 C33.1175126,10.75 33.1175126,10.75 30.6288763,10.75 C27.5745539,10.75 27.5745539,10.75 23.9545455,10.75 C20.334537,10.75 20.334537,10.75 17.2802146,10.75 C14.7915783,10.75 14.7915783,10.75 14,10.75 C6.68222707,10.75 0.75,16.6822271 0.75,24 Z"/>
      <circle cx="14" cy="24" r="10" fill="#DDDBDB"/>
    </g>
    <g fill="#7F7F7F" transform="translate(144 672)">
      <g transform="rotate(45 -2.5 28.107)">
        <rect width="20" height="2" x="-9" y="9" transform="rotate(90 1 10)"/>
        <rect width="20" height="2" y="18"/>
      </g>
      <g transform="scale(-1 1) rotate(45 -27.142 -31.385)">
        <rect width="20" height="2" x="-9" y="9" transform="rotate(90 1 10)"/>
        <rect width="20" height="2" y="18"/>
      </g>
    </g>
    <g transform="translate(96 912)">
      <circle cx="24" cy="24" r="14.75" fill="#FFF" stroke="#CACACA" stroke-width="1.5"/>
      <use fill="#000" filter="url(#icon_sprite-g)" xlink:href="#icon_sprite-h"/>
      <use fill="#047CBF" xlink:href="#icon_sprite-h"/>
    </g>
    <g fill="#FFF" transform="translate(144 912)">
      <circle cx="24" cy="24" r="13.25" stroke="#CACACA" stroke-width="1.5"/>
      <circle cx="24" cy="24" r="10"/>
    </g>
    <polygon fill="#000" fill-rule="nonzero" points="26.278 12 26.278 21.835 36 21.835 36 26.075 26.278 26.075 26.278 36 21.721 36 21.721 26.075 12 26.075 12 21.835 21.722 21.835 21.722 12" transform="rotate(45 -1250.705 552)"/>
    <g transform="translate(0 960)">
      <rect width="26.5" height="26.5" x="10.75" y="10.75" stroke="#4E4C4B" stroke-width="1.5"/>
      <rect width="2" height="14" x="17" y="17" fill="#4E4C4B"/>
      <rect width="2" height="14" x="29" y="17" fill="#4E4C4B"/>
      <rect width="2" height="2" x="23" y="26" fill="#4E4C4B"/>
      <rect width="2" height="2" x="23" y="20" fill="#4E4C4B"/>
    </g>
    <g transform="translate(48 960)">
      <rect width="26.5" height="26.5" x="10.75" y="10.75" stroke="#4E4C4B" stroke-width="1.5"/>
      <path fill="#4E4C4B" d="M32,17.5286865 L26.7184307,22.8102558 L25.2636362,21.3554614 L30.5617075,16.0573901 L26,16.0573901 L26,14 L34,14 L34.0573901,14 L34.0573901,22 L32,22 L32,17.5286865 Z"/>
      <path fill="#4E4C4B" d="M20.7363638,28.5286865 L15.4547945,33.8102558 L14,32.3554614 L19.2980713,27.0573901 L14.7363638,27.0573901 L14.7363638,25 L22.7363638,25 L22.7937538,25 L22.7937538,33 L20.7363638,33 L20.7363638,28.5286865 Z" transform="rotate(180 18.397 29.405)"/>
    </g>
    <g transform="translate(96 960)">
      <rect width="26.5" height="26.5" x="10.75" y="10.75" stroke="#4E4C4B" stroke-width="1.5"/>
      <path fill="#4E4C4B" d="M31,18.5286865 L25.7184307,23.8102558 L24.2636362,22.3554614 L29.5617075,17.0573901 L25,17.0573901 L25,15 L33,15 L33.0573901,15 L33.0573901,23 L31,23 L31,18.5286865 Z" transform="rotate(180 28.66 19.405)"/>
      <path fill="#4E4C4B" d="M21.7363638,27.5286865 L16.4547945,32.8102558 L15,31.3554614 L20.2980713,26.0573901 L15.7363638,26.0573901 L15.7363638,24 L23.7363638,24 L23.7937538,24 L23.7937538,32 L21.7363638,32 L21.7363638,27.5286865 Z"/>
    </g>
    <g transform="translate(0 1008)">
      <rect width="26.5" height="26.5" x="10.75" y="10.75" stroke="#FFF" stroke-width="1.5"/>
      <rect width="2" height="14" x="17" y="17" fill="#FFF"/>
      <rect width="2" height="14" x="29" y="17" fill="#FFF"/>
      <rect width="2" height="2" x="23" y="26" fill="#FFF"/>
      <rect width="2" height="2" x="23" y="20" fill="#FFF"/>
    </g>
    <g transform="translate(96 1008)">
      <rect width="26.5" height="26.5" x="10.75" y="10.75" stroke="#FFF" stroke-width="1.5"/>
      <path fill="#FFF" d="M31,18.5286865 L25.7184307,23.8102558 L24.2636362,22.3554614 L29.5617075,17.0573901 L25,17.0573901 L25,15 L33,15 L33.0573901,15 L33.0573901,23 L31,23 L31,18.5286865 Z" transform="rotate(180 28.66 19.405)"/>
      <path fill="#FFF" d="M21.7363638,27.5286865 L16.4547945,32.8102558 L15,31.3554614 L20.2980713,26.0573901 L15.7363638,26.0573901 L15.7363638,24 L23.7363638,24 L23.7937538,24 L23.7937538,32 L21.7363638,32 L21.7363638,27.5286865 Z"/>
    </g>
    <g transform="translate(48 1008)">
      <rect width="26.5" height="26.5" x="10.75" y="10.75" stroke="#FFF" stroke-width="1.5"/>
      <path fill="#FFF" d="M32,17.5286865 L26.7184307,22.8102558 L25.2636362,21.3554614 L30.5617075,16.0573901 L26,16.0573901 L26,14 L34,14 L34.0573901,14 L34.0573901,22 L32,22 L32,17.5286865 Z"/>
      <path fill="#FFF" d="M20.7363638,28.5286865 L15.4547945,33.8102558 L14,32.3554614 L19.2980713,27.0573901 L14.7363638,27.0573901 L14.7363638,25 L22.7363638,25 L22.7937538,25 L22.7937538,33 L20.7363638,33 L20.7363638,28.5286865 Z" transform="rotate(180 18.397 29.405)"/>
    </g>
    <polygon fill="#FFF" fill-rule="nonzero" points="26.278 12 26.278 21.835 36 21.835 36 26.075 26.278 26.075 26.278 36 21.721 36 21.721 26.075 12 26.075 12 21.835 21.722 21.835 21.722 12" transform="rotate(45 -1226.705 609.941)"/>
    <g fill="#FFF" transform="translate(48 1104)">
      <rect width="30" height="2" x="9" y="14"/>
      <rect width="30" height="2" x="9" y="23"/>
      <rect width="23.226" height="2" x="9" y="32"/>
    </g>
    <g fill="#FFF" transform="translate(96 1104)">
      <rect width="23" height="2" x="16" y="14"/>
      <rect width="23" height="2" x="16" y="23"/>
      <rect width="17.806" height="2" x="16" y="32"/>
      <circle cx="10.5" cy="15.5" r="2.5"/>
      <circle cx="10.5" cy="24.5" r="2.5"/>
      <circle cx="10.5" cy="33.5" r="2.5"/>
    </g>
    <g fill="#FFF" transform="translate(144 1104)">
      <path d="M12.0573908 18.7301055L10.6921408 18.7301055 10.6921408 14.3651514 9 14.3651514 9 13.3364067C9.23715728 13.3428163 9.46629906 13.32519 9.6874322 13.2835273 9.90856535 13.2418645 10.1072617 13.1681546 10.2835273 13.0623952 10.4597928 12.9566359 10.6088151 12.817228 10.7305986 12.6441672 10.852382 12.4711065 10.9325015 12.2563863 10.9709595 12L12.0573908 12 12.0573908 18.7301055zM8.15383098 23.7208855C8.14101167 23.3363061 8.18587859 22.9789731 8.28843309 22.6488758 8.39098759 22.3187785 8.54481704 22.0303483 8.74992604 21.7835766 8.95503504 21.5368048 9.21301984 21.344518 9.52388817 21.2067104 9.83475651 21.0689028 10.1920895 21 10.5958978 21 10.9035613 21 11.1967987 21.0480717 11.4756188 21.1442165 11.7544388 21.2403614 11.9996045 21.3781669 12.2111232 21.5576373 12.4226418 21.7371077 12.5908928 21.9582375 12.7158811 22.2210334 12.8408694 22.4838293 12.9033626 22.7786691 12.9033626 23.1055616 12.9033626 23.4452734 12.8488813 23.7369084 12.7399172 23.9804753 12.630953 24.2240422 12.4867379 24.4403649 12.3072675 24.6294498 12.1277971 24.8185346 11.9242936 24.9899903 11.6967508 25.1438221 11.469208 25.2976539 11.2400662 25.4498809 11.0093186 25.6005078 10.778571 25.7511348 10.5542364 25.9129761 10.3363081 26.0860369 10.1183797 26.2590976 9.92609293 26.4609987 9.75944187 26.6917464L12.9418203 26.6917464 12.9418203 27.8647076 8 27.8647076C8 27.4737186 8.05608365 27.1340119 8.16825264 26.8455773 8.28042162 26.5571428 8.43264868 26.299158 8.62493837 26.0716152 8.81722806 25.8440724 9.04316505 25.6341593 9.30275614 25.4418696 9.56234722 25.2495799 9.83635592 25.0540884 10.1247905 24.855389 10.2722125 24.7528345 10.4292468 24.6486792 10.5958978 24.5429198 10.7625489 24.4371605 10.914776 24.320186 11.0525836 24.1919929 11.1903912 24.0637998 11.3057633 23.9195847 11.3987033 23.7593433 11.4916433 23.5991018 11.5381126 23.4164294 11.5381126 23.2113204 11.5381126 22.8844279 11.4435716 22.6296479 11.2544867 22.4469727 11.0654019 22.2642975 10.823441 22.1729612 10.5285968 22.1729612 10.3298974 22.1729612 10.1616465 22.2194306 10.0238389 22.3123706 9.88603126 22.4053106 9.77546634 22.5270922 9.69214081 22.6777192 9.60881528 22.8283461 9.54952685 22.9949946 9.51427374 23.1776699 9.47902063 23.3603451 9.46139434 23.5414151 9.46139434 23.7208855L8.15383098 23.7208855zM10.0195247 32.8554876C10.1669468 32.8683069 10.323981 32.8683069 10.4906321 32.8554876 10.6572832 32.8426683 10.812715 32.8058133 10.9569323 32.7449216 11.1011495 32.6840299 11.2197264 32.5958984 11.3126664 32.4805246 11.4056064 32.3651508 11.4520757 32.2113213 11.4520757 32.0190317 11.4520757 31.7305971 11.3559323 31.5094673 11.1636426 31.3556355 10.971353 31.2018038 10.7502231 31.1248891 10.5002465 31.1248891 10.1541251 31.1248891 9.89293551 31.2386588 9.71666996 31.4662016 9.54040441 31.6937444 9.45547774 31.9805722 9.46188739 32.3266936L8.16393848 32.3266936C8.17675779 31.9805722 8.239251 31.6649013 8.35141999 31.3796716 8.46358897 31.0944419 8.6206232 30.8492762 8.82252737 30.6441672 9.02443155 30.4390582 9.26639244 30.2804216 9.54841732 30.1682526 9.8304422 30.0560837 10.1445106 30 10.4906321 30 10.7598377 30 11.0290392 30.0400598 11.2982448 30.1201805 11.5674503 30.2003012 11.8094112 30.3204804 12.0241347 30.4807218 12.2388582 30.6409632 12.4135187 30.8364548 12.5481215 31.0672024 12.6827243 31.2979501 12.7500247 31.5639468 12.7500247 31.8652007 12.7500247 32.1920931 12.6715075 32.4805233 12.514471 32.7304999 12.3574344 32.9804765 12.121883 33.1503299 11.8078099 33.2400651L11.8078099 33.2592939C12.17957 33.3426195 12.4712049 33.5220872 12.6827236 33.7977024 12.8942423 34.0733176 13 34.40341 13 34.7879893 13 35.1405204 12.9310972 35.4545889 12.7932896 35.7302041 12.655482 36.0058193 12.4712072 36.2365635 12.2404595 36.4224435 12.0097119 36.6083236 11.7437151 36.7493339 11.4424613 36.8454787 11.1412075 36.9416236 10.827139 36.9896953 10.5002465 36.9896953 10.1220768 36.9896953 9.77756294 36.935214 9.46669461 36.8262499 9.15582628 36.7172857 8.89143192 36.5586491 8.67350361 36.3503353 8.45557529 36.1420214 8.28732434 35.8872414 8.16874569 35.5859876 8.05016705 35.2847337 7.9940834 34.9386175 8.00049306 34.5476284L9.29844197 34.5476284C9.30485163 34.7270988 9.33369465 34.8985545 9.3849719 35.0620008 9.43624915 35.225447 9.5099591 35.3664573 9.60610394 35.485036 9.70224879 35.6036146 9.82242804 35.6981556 9.96664531 35.7686619 10.1108626 35.8391681 10.2823183 35.8744207 10.4810177 35.8744207 10.7886812 35.8744207 11.0482683 35.7798796 11.259787 35.5907948 11.4713057 35.4017099 11.5770634 35.1437251 11.5770634 34.8168327 11.5770634 34.5604464 11.5273893 34.3649548 11.4280396 34.230352 11.32869 34.0957492 11.2021012 33.9980035 11.0482694 33.9371117 10.8944377 33.87622 10.7261867 33.8409674 10.5435115 33.8313529 10.3608363 33.8217384 10.1861758 33.8169313 10.0195247 33.8169313L10.0195247 32.8554876z"/>
      <rect width="23" height="2" x="16" y="14"/>
      <rect width="23" height="2" x="16" y="23"/>
      <rect width="17.806" height="2" x="16" y="32"/>
    </g>
    <g fill="#FFF" transform="translate(13 1117)">
      <path fill-rule="nonzero" d="M9.44588728,13.3571429 C9.15358336,13.3571429 8.86136729,13.2484469 8.63837301,13.0310121 C6.54911376,10.9937976 6.54911376,7.67899844 8.63837301,5.64178394 L12.8549283,1.53035204 C13.8670773,0.543479904 15.2126855,0 16.6439865,0 C18.0752874,0 19.4209395,0.543479904 20.4330885,1.53030921 C22.5223038,3.56752372 22.5223038,6.88232286 20.4330885,8.91953736 L18.5056396,10.7989328 C18.059651,11.2338024 17.3366435,11.2338024 16.890611,10.7989328 C16.4446664,10.3641061 16.4446664,9.65903835 16.890611,9.22416877 L18.81806,7.34477329 C20.0167915,6.17588464 20.0167915,4.27396194 18.81806,3.10507329 C18.2373612,2.53885202 17.4652485,2.22702561 16.6439865,2.22702561 C15.8227245,2.22702561 15.0506556,2.53885202 14.469913,3.10511611 L10.2533576,7.21650518 C9.05458216,8.38539384 9.05458216,10.2873594 10.2533576,11.456248 C10.6993462,11.8910748 10.6993023,12.5961425 10.2533576,13.0310121 C10.0304512,13.248404 9.73810335,13.3571429 9.44588728,13.3571429 Z"/>
      <path fill-rule="nonzero" d="M5.35598483,22 C3.92464472,22 2.57899703,21.4565194 1.56693925,20.4696889 C-0.522313083,18.432472 -0.522313083,15.1176689 1.56693925,13.0804519 L3.49433788,11.201097 C3.94032498,10.7662697 4.6634179,10.7662697 5.10936108,11.201097 C5.55534817,11.6359243 5.55534817,12.3409929 5.10936108,12.775863 L3.18196244,14.6552179 C1.98319094,15.8241079 1.98319094,17.7260757 3.18196244,18.8949658 C3.76261533,19.4611449 4.53472555,19.7729717 5.35598483,19.7729717 C6.17724411,19.7729717 6.9493104,19.4611449 7.53009505,18.8948802 L11.7466364,14.7834861 C12.945364,13.6145961 12.945364,11.7126283 11.7466364,10.5437382 C11.3006493,10.1088681 11.3006933,9.40384235 11.7466364,8.96897224 C12.1925796,8.53414497 12.9156725,8.53414497 13.3616596,8.96901507 C15.450868,11.0061892 15.450868,14.3209923 13.3617036,16.3582093 L9.14511825,20.4696461 C8.13292871,21.4565623 6.78728101,22 5.35598483,22 Z"/>
    </g>
  </g>
</svg>
