<svg xmlns="http://www.w3.org/2000/svg" width="48" height="48" version="1.1" viewBox="0 0 48 48">
  <g fill="none" fill-rule="evenodd" stroke="#4E4C4B" stroke-width="1.5" transform="translate(8 12)">
    <path fill="#FFF" fill-rule="nonzero" d="M30.947427,7.33476502 L25.1618234,0.75 L2.20993103,0.75 C1.40217398,0.75 0.75,1.39917683 0.75,2.20113273 L0.75,22.1188673 C0.75,22.9172332 1.40392725,23.57 2.19948276,23.57 L29.8005172,23.57 C30.6008436,23.57 31.25,22.9192126 31.25,22.1145145 L31.25,10.7895508 C31.25,9.89087714 31.25,9.89087714 31.25,9.44940677 C31.25,9.18136336 31.25,9.18136336 31.25,9.14982455 C31.25,8.68316327 31.1838868,8.2147399 31.0735722,7.7714034 C31.0278674,7.5877232 30.983055,7.43930837 30.947427,7.33476502 Z"/>
    <line x1="22.75" x2="22.75" y1="1.5" y2="8.5" stroke-linecap="square"/>
    <line x1="23.5" x2="30.5" y1="8.75" y2="8.75" stroke-linecap="square"/>
  </g>
</svg>
