<svg xmlns="http://www.w3.org/2000/svg" xmlns:xlink="http://www.w3.org/1999/xlink" width="192" height="960" viewBox="0 0 192 960">
  <defs>
    <path id="icon_sprite-b" d="M17.0361328,6.09261025 L29.7866552,6.09261025 C31.0101724,6.09261025 32,7.08002298 32,8.2980957 L32,22.1145145 C32,23.3332436 31.0152414,24.32 29.8005172,24.32 L2.19948276,24.32 C0.992793103,24.32 5.68434189e-14,23.3345218 5.68434189e-14,22.1188673 L5.68434189e-14,2.20113273 C5.68434189e-14,0.983509091 0.989413793,0 2.20993103,0 L12.0785038,0 L17.0361328,6.09261025 Z"/>
    <path id="icon_sprite-a" d="M12,12 L36,12 L36,36 L12,36 L12,12 Z"/>
    <mask id="icon_sprite-c" width="24" height="24" x="0" y="0" fill="#fff">
      <use xlink:href="#icon_sprite-a"/>
    </mask>
  </defs>
  <g fill="none" fill-rule="evenodd">
    <path fill="#605E5D" fill-rule="nonzero" d="M4.933,6.871 C5.57,6.018 6.87,5.871 17.619,5.933 C28.127,5.995 31.059,5.427 32.18,6.683 C32.667,7.23 33.835,12.135 35.742,19.494 C37.64,26.82 38.243,33.085 38.054,33.805 C37.815,34.724 34.151,35.73 21.744,37.305 C7.487,39.115 7.23,39.387 5.87,37.93 C4.995,36.992 4.558,30.931 4.558,22.244 C4.558,13.536 4.497,7.455 4.933,6.871 Z" opacity=".8"/>
    <path fill="#4E4C4B" fill-rule="nonzero" stroke="#AFAFAF" d="M3.909,4.598 C4.546,3.745 5.846,3.598 16.595,3.66 C27.103,3.722 30.035,3.154 31.156,4.41 C31.643,4.957 32.811,9.862 34.718,17.221 C36.616,24.547 37.219,30.812 37.03,31.532 C36.791,32.451 33.127,33.457 20.72,35.032 C6.464,36.842 6.207,37.114 4.847,35.657 C3.972,34.719 3.535,28.658 3.535,19.971 C3.534,11.263 3.473,5.182 3.909,4.598 Z"/>
    <path fill="#FFF" fill-rule="nonzero" d="M1.304,10.332 L1.325,11.897 L16.237,11.98 L16.216,10.415 L1.304,10.332 Z M22.558,0.039 L0.92,0.01 L0.951,1.575 L22.587,1.604 L22.558,0.039 Z M23.379,3.497 L0.993,3.468 L1.023,5.033 L23.41,5.062 L23.379,3.497 Z M23.719,8.524 L23.689,6.959 L1.301,6.93 L1.332,8.495 L23.719,8.524 Z" opacity=".9" transform="translate(6 8)"/>
    <g fill="#4E4C4B" fill-rule="nonzero" transform="translate(0 48)">
      <path d="M34.647,20.432 C37.853,20.432 40.45,17.833 40.45,14.628 C40.45,11.424 37.853,8.825 34.647,8.825 C31.443,8.825 28.845,11.424 28.845,14.628 C28.844,17.833 31.443,20.432 34.647,20.432 Z M34.768,22.608 C28.241,22.608 24.735,30.466 24.735,46.423 L43.837,46.423 C43.836,27.927 41.297,22.608 34.768,22.608 Z"/>
      <path d="M16.713,15.712 C20.5,15.712 23.569,12.643 23.569,8.856 C23.569,5.07 20.5,2 16.713,2 C12.927,2 9.857,5.07 9.857,8.856 C9.857,12.643 12.927,15.712 16.713,15.712 Z M16.857,18.283 C9.143,18.283 5,27.568 5,46.423 L27.569,46.423 C27.57,24.568 24.57,18.283 16.857,18.283 Z"/>
    </g>
    <path fill="#4E4C4B" fill-rule="nonzero" d="M24.811,17.712 C28.598,17.712 31.667,14.643 31.667,10.856 C31.667,7.07 28.598,4 24.811,4 C21.025,4 17.955,7.07 17.955,10.856 C17.955,14.643 21.025,17.712 24.811,17.712 Z M25.112,20.283 C17.283,20.283 10,24.362 10,43.217 L38.765,43.217 C38.765,23.609 32.245,20.283 25.112,20.283 Z" transform="translate(48 48)"/>
    <g transform="translate(0 96)">
      <path fill="#4E4C4B" fill-rule="nonzero" d="M45.369,26.977 C45.888,26.793 46.356,26.194 46.41,25.647 C46.41,25.647 46.501,24.731 46.501,23.751 C46.501,22.771 46.41,21.855 46.41,21.855 C46.356,21.308 45.888,20.709 45.369,20.525 L41.331,19.088 C40.812,18.904 40.238,18.329 40.055,17.811 L39.479,16.418 C39.243,15.921 39.244,15.108 39.48,14.611 L41.318,10.745 C41.554,10.248 41.45,9.504 41.086,9.091 L38.41,6.415 C37.997,6.051 37.253,5.947 36.756,6.183 L32.89,8.021 C32.393,8.257 31.58,8.258 31.083,8.022 L29.689,7.446 C29.171,7.262 28.596,6.688 28.412,6.17 L26.975,2.131 C26.791,1.612 26.192,1.144 25.645,1.09 C25.645,1.09 24.73,1 23.75,1 C22.77,1 21.855,1.09 21.855,1.09 C21.308,1.144 20.709,1.612 20.525,2.131 L19.088,6.17 C18.904,6.689 18.329,7.263 17.811,7.447 L16.417,8.022 C15.92,8.258 15.107,8.257 14.61,8.021 L10.744,6.183 C10.247,5.947 9.503,6.051 9.09,6.415 L6.414,9.091 C6.05,9.504 5.946,10.248 6.182,10.745 L8.02,14.611 C8.256,15.108 8.257,15.921 8.021,16.418 L7.446,17.812 C7.262,18.33 6.688,18.905 6.169,19.089 L2.131,20.525 C1.612,20.709 1.144,21.308 1.09,21.855 C1.09,21.855 1,22.771 1,23.751 C1,24.731 1.09,25.647 1.09,25.647 C1.144,26.194 1.612,26.793 2.131,26.977 L6.169,28.413 C6.688,28.597 7.262,29.172 7.446,29.69 L8.021,31.084 C8.257,31.581 8.256,32.394 8.02,32.891 L6.182,36.757 C5.946,37.254 6.05,37.998 6.414,38.411 L9.09,41.087 C9.503,41.451 10.247,41.555 10.744,41.319 L14.61,39.481 C15.107,39.245 15.92,39.244 16.417,39.48 L17.811,40.055 C18.329,40.239 18.904,40.813 19.088,41.332 L20.525,45.371 C20.709,45.89 21.308,46.358 21.855,46.412 C21.855,46.412 22.77,46.502 23.75,46.502 C24.73,46.502 25.645,46.412 25.645,46.412 C26.192,46.358 26.791,45.89 26.975,45.371 L28.412,41.332 C28.596,40.813 29.171,40.239 29.689,40.055 L31.083,39.48 C31.58,39.244 32.393,39.245 32.89,39.481 L36.756,41.319 C37.253,41.555 37.997,41.451 38.41,41.087 L41.086,38.411 C41.45,37.998 41.554,37.254 41.318,36.757 L39.48,32.891 C39.244,32.394 39.243,31.581 39.479,31.084 L40.054,29.691 C40.238,29.173 40.812,28.598 41.331,28.414 L45.369,26.977 Z M23.751,30.001 C20.3,30.001 17.501,27.203 17.501,23.751 C17.501,20.299 20.299,17.501 23.751,17.501 C27.203,17.501 30.001,20.299 30.001,23.751 C30.001,27.203 27.203,30.001 23.751,30.001 Z"/>
      <path fill="#7F7F7F" fill-rule="nonzero" d="M23.751,12.088 C17.31,12.088 12.088,17.31 12.088,23.751 C12.088,30.192 17.31,35.414 23.751,35.414 C30.192,35.414 35.413,30.192 35.413,23.751 C35.413,17.31 30.191,12.088 23.751,12.088 Z M23.751,28.918 C20.898,28.918 18.584,26.605 18.584,23.751 C18.584,20.897 20.897,18.584 23.751,18.584 C26.605,18.584 28.918,20.897 28.918,23.751 C28.918,26.605 26.605,28.918 23.751,28.918 Z"/>
      <circle cx="23.751" cy="23.751" r="12.186" stroke="#B2B2B2"/>
    </g>
    <path fill="#7F7F7F" fill-rule="nonzero" d="M45.369,26.977 C45.888,26.793 46.356,26.194 46.41,25.647 C46.41,25.647 46.501,24.731 46.501,23.751 C46.501,22.771 46.41,21.855 46.41,21.855 C46.356,21.308 45.888,20.709 45.369,20.525 L41.331,19.088 C40.812,18.904 40.238,18.329 40.055,17.811 L39.479,16.418 C39.243,15.921 39.244,15.108 39.48,14.611 L41.318,10.745 C41.554,10.248 41.45,9.504 41.086,9.091 L38.41,6.415 C37.997,6.051 37.253,5.947 36.756,6.183 L32.89,8.021 C32.393,8.257 31.58,8.258 31.083,8.022 L29.689,7.446 C29.171,7.262 28.596,6.688 28.412,6.17 L26.975,2.131 C26.791,1.612 26.192,1.144 25.645,1.09 C25.645,1.09 24.73,1 23.75,1 C22.77,1 21.855,1.09 21.855,1.09 C21.308,1.144 20.709,1.612 20.525,2.131 L19.088,6.17 C18.904,6.689 18.329,7.263 17.811,7.447 L16.417,8.022 C15.92,8.258 15.107,8.257 14.61,8.021 L10.744,6.183 C10.247,5.947 9.503,6.051 9.09,6.415 L6.414,9.091 C6.05,9.504 5.946,10.248 6.182,10.745 L8.02,14.611 C8.256,15.108 8.257,15.921 8.021,16.418 L7.446,17.812 C7.262,18.33 6.688,18.905 6.169,19.089 L2.131,20.525 C1.612,20.709 1.144,21.308 1.09,21.855 C1.09,21.855 1,22.771 1,23.751 C1,24.731 1.09,25.647 1.09,25.647 C1.144,26.194 1.612,26.793 2.131,26.977 L6.169,28.413 C6.688,28.597 7.262,29.172 7.446,29.69 L8.021,31.084 C8.257,31.581 8.256,32.394 8.02,32.891 L6.182,36.757 C5.946,37.254 6.05,37.998 6.414,38.411 L9.09,41.087 C9.503,41.451 10.247,41.555 10.744,41.319 L14.61,39.481 C15.107,39.245 15.92,39.244 16.417,39.48 L17.811,40.055 C18.329,40.239 18.904,40.813 19.088,41.332 L20.525,45.371 C20.709,45.89 21.308,46.358 21.855,46.412 C21.855,46.412 22.77,46.502 23.75,46.502 C24.73,46.502 25.645,46.412 25.645,46.412 C26.192,46.358 26.791,45.89 26.975,45.371 L28.412,41.332 C28.596,40.813 29.171,40.239 29.689,40.055 L31.083,39.48 C31.58,39.244 32.393,39.245 32.89,39.481 L36.756,41.319 C37.253,41.555 37.997,41.451 38.41,41.087 L41.086,38.411 C41.45,37.998 41.554,37.254 41.318,36.757 L39.48,32.891 C39.244,32.394 39.243,31.581 39.479,31.084 L40.054,29.691 C40.238,29.173 40.812,28.598 41.331,28.414 L45.369,26.977 Z M23.75,31.876 C19.263,31.876 15.625,28.239 15.625,23.751 C15.625,19.264 19.262,15.626 23.75,15.626 C28.237,15.626 31.875,19.264 31.875,23.751 C31.875,28.239 28.238,31.876 23.75,31.876 Z" transform="translate(48 96)"/>
    <g fill="#4E4C4B" transform="translate(8 156)">
      <polygon fill-rule="nonzero" points="32 0 33 0 33 24 32 24"/>
      <path fill-rule="nonzero" d="M29,1 L29,23 L1,23 L1,1 L29,1 L29,1 Z M30,0 L0,0 L0,24 L30,24 L30,0 L30,0 Z"/>
    </g>
    <g fill="#4E4C4B" transform="translate(56 156)">
      <path fill-rule="nonzero" d="M14 1L14 23 1 23 1 1 14 1 14 1zM15 0L0 0 0 24 15 24 15 0 15 0zM32 1L32 23 19 23 19 1 32 1 32 1zM33 0L18 0 18 24 33 24 33 0 33 0z"/>
    </g>
    <g fill="#4E4C4B" transform="translate(104 156)">
      <path fill-rule="nonzero" d="M6 1L6 23 1 23 1 1 6 1 6 1zM7 0L0 0 0 24 7 24 7 0 7 0zM32 1L32 23 11 23 11 1 32 1 32 1zM33 0L10 0 10 24 33 24 33 0 33 0z"/>
    </g>
    <g fill="#4E4C4B" transform="translate(152 156)">
      <path fill-rule="nonzero" d="M32,1 L32,23 L4,23 L4,1 L32,1 L32,1 Z M33,0 L3,0 L3,24 L33,24 L33,0 L33,0 Z"/>
      <rect width="1" height="24" fill-rule="nonzero"/>
    </g>
    <g fill="#820" transform="translate(8 204)">
      <polygon fill-rule="nonzero" points="32 0 33 0 33 24 32 24"/>
      <path fill-rule="nonzero" d="M29,23 L1,23 L1,1 L29,1 L29,23 Z M0,0 L0,24 L30,24 L30,0 L0,0 Z"/>
    </g>
    <g fill="#820" transform="translate(56 204)">
      <path fill-rule="nonzero" d="M14 1L14 23 1 23 1 1 14 1 14 1zM15 0L0 0 0 24 15 24 15 0 15 0zM32 1L32 23 19 23 19 1 32 1 32 1zM33 0L18 0 18 24 33 24 33 0 33 0z"/>
    </g>
    <g fill="#820" transform="translate(103 204)">
      <path fill-rule="nonzero" d="M6 1L6 23 1 23 1 1 6 1 6 1zM7 0L0 0 0 24 7 24 7 0 7 0zM32 1L32 23 11 23 11 1 32 1 32 1zM33 0L10 0 10 24 33 24 33 0 33 0z"/>
    </g>
    <g fill="#820" transform="translate(152 204)">
      <path fill-rule="nonzero" d="M32,1 L32,23 L4,23 L4,1 L32,1 L32,1 Z M33,0 L3,0 L3,24 L33,24 L33,0 L33,0 Z"/>
      <rect width="1" height="24" fill-rule="nonzero"/>
    </g>
    <path stroke="#4E4C4B" d="M34.5178146,25.753 C34.5178146,25.753 36.7468146,25.486 35.5668146,26.697 L24.5338146,37.792 C24.5338146,37.792 23.8678146,38.65 23.2648146,37.775 L12.2988146,26.73 C12.2988146,26.73 11.1238146,25.751 13.4338146,25.751 L18.8008146,25.751 L18.7848146,12.105 C18.8908146,9.99600003 21.0568146,10 21.0568146,10 L26.7608146,10.002 C28.9058146,10.072 28.9408146,12.252 28.9408146,12.252 L28.9248146,25.752 L34.5178146,25.753 L34.5178146,25.753 L34.5178146,25.753 Z" transform="translate(0 240)"/>
    <path fill="#4E4C4B" fill-rule="nonzero" d="M34.5164364,25.753 C34.5164364,25.753 36.7454364,25.486 35.5654364,26.697 L24.5324364,37.792 C24.5324364,37.792 23.8664364,38.65 23.2634364,37.775 L12.2984364,26.73 C12.2984364,26.73 11.1244364,25.751 13.4334364,25.751 L18.8004364,25.751 L18.7844364,12.104 C18.8904364,10 21.0564364,10 21.0564364,10 L26.7604364,10.003 C28.9054364,10.073 28.9404364,12.253 28.9404364,12.253 L28.9244364,25.753 L34.5164364,25.753 Z" transform="translate(48 240)"/>
    <polygon fill="#000" fill-rule="nonzero" points="26.278 12 26.278 21.835 36 21.835 36 26.075 26.278 26.075 26.278 36 21.721 36 21.721 26.075 12 26.075 12 21.835 21.722 21.835 21.722 12" transform="translate(0 288)"/>
    <polygon fill="#000" fill-rule="nonzero" points="12 26.24 12 22 36 22 36 26.24" transform="translate(48 288)"/>
    <g transform="translate(4 340)">
      <circle cx="20" cy="20" r="20" fill="#4E4C4B" fill-rule="nonzero"/>
      <path fill="#FFF" fill-rule="nonzero" d="M18.002,23.007 L17.973,22.248 C17.885,20.762 18.381,19.245 19.693,17.67 C20.626,16.563 21.384,15.629 21.384,14.639 C21.384,13.618 20.713,12.948 19.256,12.889 C18.294,12.889 17.127,13.239 16.369,13.764 L15.377,10.584 C16.427,9.973 18.177,9.389 20.247,9.389 C24.096,9.389 25.846,11.518 25.846,13.938 C25.846,16.155 24.476,17.612 23.368,18.837 C22.289,20.032 21.851,21.17 21.88,22.483 L21.88,23.007 L18.002,23.007 L18.002,23.007 Z M17.244,27.031 C17.244,25.486 18.323,24.377 19.839,24.377 C21.414,24.377 22.435,25.486 22.464,27.031 C22.464,28.548 21.414,29.685 19.839,29.685 C18.294,29.686 17.244,28.548 17.244,27.031 Z"/>
    </g>
    <g transform="translate(52 340)">
      <circle cx="20" cy="20" r="20" fill="#047CBF" fill-rule="nonzero"/>
      <path fill="#FFF" fill-rule="nonzero" d="M18.003,23.007 L17.974,22.248 C17.886,20.762 18.382,19.245 19.694,17.67 C20.627,16.563 21.385,15.629 21.385,14.639 C21.385,13.618 20.714,12.948 19.257,12.889 C18.295,12.889 17.128,13.239 16.37,13.764 L15.378,10.584 C16.428,9.973 18.178,9.389 20.248,9.389 C24.097,9.389 25.847,11.518 25.847,13.938 C25.847,16.155 24.477,17.612 23.369,18.837 C22.29,20.032 21.852,21.17 21.881,22.483 L21.881,23.007 L18.003,23.007 L18.003,23.007 Z M17.245,27.031 C17.245,25.486 18.324,24.377 19.84,24.377 C21.415,24.377 22.436,25.486 22.465,27.031 C22.465,28.548 21.415,29.685 19.84,29.685 C18.294,29.686 17.245,28.548 17.245,27.031 Z"/>
    </g>
    <path fill="#4E4C4B" fill-rule="nonzero" d="M18,13.2195348 C18.1537931,13.0731783 18.3294721,13 18.5288116,13 C18.728151,13 18.90383,13.0731783 19.0576231,13.2195348 L29.7699019,23.4894539 C29.923695,23.6409159 30,23.8082616 30,23.9977309 C30,24.1872002 29.923695,24.3590841 29.7699019,24.5054407 L19.0576231,34.7793306 C18.9044216,34.9268217 18.728151,35 18.5288116,35 C18.3294721,35 18.1537931,34.9268217 18,34.7793306 L18,13.2195348 L18,13.2195348 Z" transform="translate(0 384)"/>
    <path fill="#4E4C4B" fill-rule="nonzero" d="M34.7799206,18 C34.9268293,18.1537855 35,18.3300473 35,18.5287855 C35,18.7287066 34.9268293,18.904377 34.7799206,19.0581625 L24.5076574,29.7693218 C24.3601815,29.9231073 24.1905842,30 24,30 C23.8094158,30 23.6398185,29.9231073 23.493477,29.7693218 L13.2206466,19.0581625 C13.0731707,18.904377 13,18.7287066 13,18.5287855 C13,18.3300473 13.0731707,18.1537855 13.2206466,18 L34.7799206,18 Z" transform="translate(48 384)"/>
    <g fill-rule="nonzero" transform="translate(8 444)">
      <use fill="#7F7F7F" fill-rule="evenodd" xlink:href="#icon_sprite-b"/>
      <path stroke="#4E4C4B" stroke-width="1.5" d="M11.7218614,0.75 L2.20993103,0.75 C1.40217398,0.75 0.75,1.39917683 0.75,2.20113273 L0.75,22.1188673 C0.75,22.9172332 1.40392725,23.57 2.19948276,23.57 L29.8005172,23.57 C30.6008436,23.57 31.25,22.9192126 31.25,22.1145145 L31.25,8.2980957 C31.25,7.49439687 30.596116,6.84261025 29.7866552,6.84261025 L16.6794904,6.84261025 L11.7218614,0.75 Z"/>
    </g>
    <g stroke="#7F7F7F" stroke-linecap="square" transform="translate(12 545)">
      <path stroke-width="2" d="M23.3373019 1.5L.342857143 1.5M23.3373019 6.5L.342857143 6.5M23.3373019 11.5L.342857143 11.5M17.1463553 16.5L.342857143 16.5"/>
    </g>
    <use stroke="#B0B0B0" stroke-dasharray="2 2 2 2" stroke-width="4" mask="url(#icon_sprite-c)" transform="translate(0 576)" xlink:href="#icon_sprite-a"/>
    <g stroke="#4E4C4B" transform="translate(56 444)">
      <path stroke-width="1.5" d="M30.947427,7.33476502 L25.1618234,0.75 L2.20993103,0.75 C1.40217398,0.75 0.75,1.39917683 0.75,2.20113273 L0.75,22.1188673 C0.75,22.9172332 1.40392725,23.57 2.19948276,23.57 L29.8005172,23.57 C30.6008436,23.57 31.25,22.9192126 31.25,22.1145145 L31.25,10.7895508 C31.25,9.89087714 31.25,9.89087714 31.25,9.44940677 C31.25,9.18136336 31.25,9.18136336 31.25,9.14982455 C31.25,8.68316327 31.1838868,8.2147399 31.0735722,7.7714034 C31.0278674,7.5877232 30.983055,7.43930837 30.947427,7.33476502 Z"/>
      <path stroke-linecap="square" stroke-width="1.5" d="M22.75 1.5L22.75 8.5M23.5 8.75L30.5 8.75"/>
    </g>
    <g stroke-linecap="square" transform="translate(60 543)">
      <path stroke="#047CBF" stroke-width="2" d="M23.3373019 1.5L.342857143 1.5M23.3373019 3.5L.342857143 3.5"/>
      <path stroke="#7F7F7F" stroke-width="2" d="M23.3373019 8.5L.342857143 8.5M23.3373019 13.5L.342857143 13.5M17.1463553 18.5L.342857143 18.5"/>
    </g>
    <polygon fill="#047CBF" points="26.505 13 25.433 22.794 35.327 20.028 36 24.838 26.555 25.536 32.685 33.66 28.224 36.053 23.838 27.131 19.925 36.053 15.315 33.66 21.346 25.536 12 24.838 12.723 20.028 22.467 22.794 21.396 13" transform="translate(96 432)"/>
    <g stroke="#4E4C4B" stroke-width="2" transform="translate(144 432)">
      <path d="M12,22.5812584 L25.6274734,36 L36,36 L36,12 L12,12 L12,22.5812584 Z" transform="rotate(180 24 24)"/>
      <path stroke-linecap="square" d="M22.5 25.5L39.7626765 8.2373235M40.5 7.5L27.5 7.5M40.5 7.5L40.5 19.5"/>
    </g>
    <g transform="translate(0 480)">
      <path stroke="#FFF" stroke-linecap="square" stroke-width="2" d="M9 3L9 42.001M18.935 19.916L18.935 31.918M18.935 42.001L9 42.001M18.935 19.916L9 19.916M29 19.916L19.066 19.916M29 31.918L19.066 31.918"/>
      <circle cx="35.705" cy="19.916" r="3.5" fill="#FFF" fill-rule="nonzero"/>
      <circle cx="35.705" cy="31.918" r="3.5" fill="#FFF" fill-rule="nonzero"/>
      <circle cx="26.08" cy="42.001" r="3.5" fill="#FFF" fill-rule="nonzero"/>
      <path stroke="#FFF" stroke-linecap="square" stroke-width="2" d="M18.935,8.81 L9,8.81"/>
      <circle cx="26.08" cy="8.81" r="3.5" fill="#FFF" fill-rule="nonzero"/>
    </g>
    <g fill="#FFF" fill-rule="nonzero" transform="translate(48 480)">
      <rect width="36" height="4" x="6" y="10"/>
      <rect width="36" height="4" x="6" y="18"/>
      <rect width="36" height="4" x="6" y="26"/>
      <rect width="36" height="4" x="6" y="34"/>
    </g>
    <g fill="#FFF" fill-rule="nonzero" transform="translate(96 480)">
      <path d="M43.11325,38.25425 L30.81825,25.98825 C34.24225,20.42525 33.55025,13.05025 28.71925,8.23225 C23.06625,2.58925 13.89525,2.58925 8.24125,8.23225 C2.58625,13.87325 2.58625,23.02325 8.24125,28.66725 C12.53625,33.38625 20.44225,33.89825 25.92925,30.77725 L38.26525,43.08825 C40.04425,44.86225 41.40425,43.69325 42.51925,42.58325 C43.63325,41.47225 44.88925,40.03125 43.11325,38.25425 Z M25.14825,25.04725 C21.43925,28.74425 15.42525,28.74425 11.71725,25.04725 C8.00825,21.34625 8.00825,15.34625 11.71725,11.64625 C15.42525,7.94525 21.43925,7.94525 25.14825,11.64625 C28.85725,15.34625 28.85725,21.34625 25.14825,25.04725 Z"/>
    </g>
  </g>
</svg>
