<svg xmlns="http://www.w3.org/2000/svg" width="48" height="48" viewBox="0 0 48 48"><g fill="none" fill-rule="evenodd" stroke="#4E4C4B" stroke-width="1.5" transform="translate(8 12)"><path fill="#FFF" fill-rule="nonzero" d="M25.1618234,0.75 L30.9464578,7.33366193 C31.0366516,7.59797417 31.25,8.31176313 31.25,9.14982455 L31.25,9.14982455 L31.25,22.1145145 C31.25,22.5168279 31.0876986,22.8809854 30.8248969,23.1445043 C30.5627526,23.4073641 30.2006062,23.57 29.8005172,23.57 L29.8005172,23.57 L2.19948276,23.57 C1.80118496,23.57 1.43870489,23.4063144 1.17577215,23.1431844 C0.91359242,22.880808 0.75,22.5188951 0.75,22.1188673 L0.75,22.1188673 L0.75,2.20113273 C0.75,1.80028907 0.912842266,1.43799484 1.17605829,1.17582675 C1.44059178,0.91234643 1.80625229,0.75 2.20993103,0.75 L2.20993103,0.75 L25.1618234,0.75 Z"/><line x1="22.75" x2="22.75" y1="1.5" y2="8.5" stroke-linecap="square"/><line x1="23.5" x2="30.5" y1="8.75" y2="8.75" stroke-linecap="square"/></g></svg>