<?xml version="1.0" encoding="utf-8"?>
<!-- Generator: Adobe Illustrator 16.0.4, SVG Export Plug-In . SVG Version: 6.00 Build 0)  -->
<!DOCTYPE svg PUBLIC "-//W3C//DTD SVG 1.1//EN" "http://www.w3.org/Graphics/SVG/1.1/DTD/svg11.dtd">
<svg version="1.1" id="Layer_1" xmlns="http://www.w3.org/2000/svg" xmlns:xlink="http://www.w3.org/1999/xlink" x="0px" y="0px"
	 width="192px" height="480px" viewBox="0 0 192 480" enable-background="new 0 0 192 480" xml:space="preserve">
<g id="grid">
	<rect x="48" fill="#CCCCCC" width="48" height="48"/>
	<rect x="48" y="384" fill="#CCCCCC" width="48" height="48"/>
	<rect x="48" y="432" fill="#CCCCCC" width="48" height="48"/>
	<rect x="96" fill="#CCCCCC" width="48" height="48"/>
	<rect x="96" y="48" fill="#CCCCCC" width="48" height="48"/>
	<rect x="96" y="240" fill="#CCCCCC" width="48" height="48"/>
	<rect x="96" y="288" fill="#CCCCCC" width="48" height="48"/>
	<rect x="96" y="336" fill="#CCCCCC" width="48" height="48"/>
	<rect x="96" y="384" fill="#CCCCCC" width="48" height="48"/>
	<rect x="96" y="432" fill="#CCCCCC" width="48" height="48"/>
	<rect x="144" fill="#CCCCCC" width="48" height="48"/>
	<rect x="144" y="48" fill="#CCCCCC" width="48" height="48"/>
	<rect x="144" y="240" fill="#CCCCCC" width="48" height="48"/>
	<rect x="144" y="288" fill="#CCCCCC" width="48" height="48"/>
	<rect x="144" y="336" fill="#CCCCCC" width="48" height="48"/>
	<rect x="144" y="384" fill="#CCCCCC" width="48" height="48"/>
	<rect x="144" y="432" fill="#CCCCCC" width="48" height="48"/>
	<rect x="192" fill="#CCCCCC" width="48" height="48"/>
	<rect x="192" y="48" fill="#CCCCCC" width="48" height="48"/>
	<rect x="192" y="192" fill="#CCCCCC" width="48" height="48"/>
	<rect x="192" y="144.205" fill="#CCCCCC" width="48" height="48"/>
	<rect x="192" y="96" fill="#CCCCCC" width="48" height="48"/>
	<rect x="192" y="240" fill="#CCCCCC" width="48" height="48"/>
	<rect x="192" y="288" fill="#CCCCCC" width="48" height="48"/>
	<rect x="192" y="336" fill="#CCCCCC" width="48" height="48"/>
	<rect x="192" y="384" fill="#CCCCCC" width="48" height="48"/>
	<rect x="192" y="432" fill="#CCCCCC" width="48" height="48"/>
</g>
<path opacity="0.8" fill="#605E5D" enable-background="new    " d="M4.933,6.871c0.637-0.853,1.937-1,12.686-0.938
	c10.508,0.062,13.44-0.506,14.561,0.75c0.487,0.547,1.655,5.452,3.562,12.811c1.898,7.326,2.501,13.591,2.312,14.311
	c-0.239,0.919-3.903,1.925-16.31,3.5C7.487,39.115,7.23,39.387,5.87,37.93c-0.875-0.938-1.312-6.999-1.312-15.686
	C4.558,13.536,4.497,7.455,4.933,6.871z"/>
<g>
	<g>
		<path fill="#4E4C4B" d="M33.178,70.009c3.206,0,5.803-2.599,5.803-5.804c0-3.204-2.597-5.803-5.803-5.803
			c-3.204,0-5.802,2.599-5.802,5.803C27.375,67.41,29.974,70.009,33.178,70.009z M33.299,72.185
			c-6.527,0-10.033,7.858-10.033,23.815h19.102C42.367,77.504,39.828,72.185,33.299,72.185z"/>
	</g>
</g>
<g>
	<g>
		<path fill="#4E4C4B" d="M15.244,65.289c3.787,0,6.856-3.069,6.856-6.856c0-3.786-3.069-6.856-6.856-6.856
			c-3.786,0-6.856,3.07-6.856,6.856C8.388,62.22,11.458,65.289,15.244,65.289z M15.388,67.86C7.674,67.86,3.531,77.145,3.531,96
			H26.1C26.101,74.145,23.101,67.86,15.388,67.86z"/>
	</g>
</g>
<g>
	<path fill="#4E4C4B" d="M70.644,65.289c3.787,0,6.856-3.069,6.856-6.856c0-3.786-3.069-6.856-6.856-6.856
		c-3.786,0-6.856,3.07-6.856,6.856C63.788,62.22,66.858,65.289,70.644,65.289z M70.945,67.86c-7.829,0-15.112,4.079-15.112,22.934
		h28.765C84.598,71.186,78.078,67.86,70.945,67.86z"/>
</g>
<path fill="#4E4C4B" stroke="#AFAFAF" stroke-miterlimit="10" d="M3.909,4.598c0.637-0.853,1.937-1,12.686-0.938
	c10.508,0.062,13.44-0.506,14.561,0.75c0.487,0.547,1.655,5.452,3.562,12.811c1.898,7.326,2.501,13.591,2.312,14.311
	c-0.239,0.919-3.903,1.925-16.31,3.5c-14.256,1.81-14.513,2.082-15.873,0.625c-0.875-0.938-1.312-6.999-1.312-15.686
	C3.534,11.263,3.473,5.182,3.909,4.598z"/>
<g opacity="0.9">
	<g>
		<path fill="#FFFFFF" d="M7.304,18.332l0.021,1.565l14.912,0.083l-0.021-1.565L7.304,18.332z M28.558,8.039L6.92,8.01l0.031,1.565
			l21.636,0.029L28.558,8.039z M29.379,11.497L6.993,11.468l0.03,1.565l22.387,0.029L29.379,11.497z M29.719,16.524l-0.03-1.565
			L7.301,14.93l0.031,1.565L29.719,16.524z"/>
	</g>
</g>
<g>
	<path fill="#4E4C4B" d="M45.618,123.226c0.519-0.184,0.987-0.783,1.041-1.33c0,0,0.091-0.916,0.091-1.896s-0.091-1.896-0.091-1.896
		c-0.054-0.547-0.522-1.146-1.041-1.33l-4.038-1.437c-0.519-0.184-1.093-0.759-1.276-1.277l-0.576-1.393
		c-0.236-0.497-0.235-1.31,0.001-1.807l1.838-3.866c0.236-0.497,0.132-1.241-0.232-1.654l-2.676-2.676
		c-0.413-0.364-1.157-0.468-1.654-0.232l-3.866,1.838c-0.497,0.236-1.31,0.237-1.807,0.001l-1.394-0.576
		c-0.518-0.184-1.093-0.758-1.277-1.276l-1.437-4.039c-0.184-0.519-0.783-0.987-1.33-1.041c0,0-0.915-0.09-1.895-0.09
		s-1.895,0.09-1.895,0.09c-0.547,0.054-1.146,0.522-1.33,1.041l-1.437,4.039c-0.184,0.519-0.759,1.093-1.277,1.277l-1.394,0.575
		c-0.497,0.236-1.31,0.235-1.807-0.001l-3.866-1.838c-0.497-0.236-1.241-0.132-1.654,0.232l-2.676,2.676
		c-0.364,0.413-0.468,1.157-0.232,1.654l1.838,3.866c0.236,0.497,0.237,1.31,0.001,1.807l-0.575,1.394
		c-0.184,0.518-0.758,1.093-1.277,1.277l-4.038,1.436c-0.519,0.184-0.987,0.783-1.041,1.33c0,0-0.09,0.916-0.09,1.896
		s0.09,1.896,0.09,1.896c0.054,0.547,0.522,1.146,1.041,1.33l4.038,1.436c0.519,0.184,1.093,0.759,1.277,1.277l0.575,1.394
		c0.236,0.497,0.235,1.31-0.001,1.807l-1.838,3.866c-0.236,0.497-0.132,1.241,0.232,1.654l2.676,2.676
		c0.413,0.364,1.157,0.468,1.654,0.232l3.866-1.838c0.497-0.236,1.31-0.237,1.807-0.001l1.394,0.575
		c0.518,0.184,1.093,0.758,1.277,1.277l1.437,4.039c0.184,0.519,0.783,0.987,1.33,1.041c0,0,0.915,0.09,1.895,0.09
		s1.895-0.09,1.895-0.09c0.547-0.054,1.146-0.522,1.33-1.041l1.437-4.039c0.184-0.519,0.759-1.093,1.277-1.277l1.394-0.575
		c0.497-0.236,1.31-0.235,1.807,0.001l3.866,1.838c0.497,0.236,1.241,0.132,1.654-0.232l2.676-2.676
		c0.364-0.413,0.468-1.157,0.232-1.654l-1.838-3.866c-0.236-0.497-0.237-1.31-0.001-1.807l0.575-1.393
		c0.184-0.518,0.758-1.093,1.277-1.277L45.618,123.226z M24,126.25c-3.451,0-6.25-2.798-6.25-6.25s2.798-6.25,6.25-6.25
		s6.25,2.798,6.25,6.25S27.452,126.25,24,126.25z"/>
</g>
<g>
	<g>
		<path fill="#7F7F7F" d="M24,108.337c-6.441,0-11.663,5.222-11.663,11.663S17.559,131.663,24,131.663S35.662,126.441,35.662,120
			S30.44,108.337,24,108.337z M24,125.167c-2.853,0-5.167-2.313-5.167-5.167s2.313-5.167,5.167-5.167s5.167,2.313,5.167,5.167
			S26.854,125.167,24,125.167z"/>
	</g>
</g>
<circle fill="none" stroke="#B2B2B2" stroke-miterlimit="10" cx="24" cy="120" r="12.186"/>
<g>
	<path fill="#BFBBBA" d="M93.619,123.226c0.519-0.184,0.987-0.783,1.041-1.33c0,0,0.091-0.916,0.091-1.896s-0.091-1.896-0.091-1.896
		c-0.054-0.547-0.522-1.146-1.041-1.33l-4.038-1.437c-0.519-0.184-1.093-0.759-1.276-1.277l-0.576-1.393
		c-0.236-0.497-0.235-1.31,0.001-1.807l1.838-3.866c0.236-0.497,0.132-1.241-0.232-1.654l-2.676-2.676
		c-0.413-0.364-1.157-0.468-1.654-0.232l-3.866,1.838c-0.497,0.236-1.31,0.237-1.807,0.001l-1.394-0.576
		c-0.518-0.184-1.093-0.758-1.277-1.276l-1.437-4.039c-0.184-0.519-0.783-0.987-1.33-1.041c0,0-0.915-0.09-1.895-0.09
		s-1.895,0.09-1.895,0.09c-0.547,0.054-1.146,0.522-1.33,1.041l-1.437,4.039c-0.184,0.519-0.759,1.093-1.277,1.277l-1.394,0.575
		c-0.497,0.236-1.31,0.235-1.807-0.001l-3.866-1.838c-0.497-0.236-1.241-0.132-1.654,0.232l-2.676,2.676
		c-0.364,0.413-0.468,1.157-0.232,1.654l1.838,3.866c0.236,0.497,0.237,1.31,0.001,1.807l-0.575,1.394
		c-0.184,0.518-0.758,1.093-1.277,1.277l-4.038,1.436c-0.519,0.184-0.987,0.783-1.041,1.33c0,0-0.09,0.916-0.09,1.896
		s0.09,1.896,0.09,1.896c0.054,0.547,0.522,1.146,1.041,1.33l4.038,1.436c0.519,0.184,1.093,0.759,1.277,1.277l0.575,1.394
		c0.236,0.497,0.235,1.31-0.001,1.807l-1.838,3.866c-0.236,0.497-0.132,1.241,0.232,1.654l2.676,2.676
		c0.413,0.364,1.157,0.468,1.654,0.232l3.866-1.838c0.497-0.236,1.31-0.237,1.807-0.001l1.394,0.575
		c0.518,0.184,1.093,0.758,1.277,1.277l1.437,4.039c0.184,0.519,0.783,0.987,1.33,1.041c0,0,0.915,0.09,1.895,0.09
		s1.895-0.09,1.895-0.09c0.547-0.054,1.146-0.522,1.33-1.041l1.437-4.039c0.184-0.519,0.759-1.093,1.277-1.277l1.394-0.575
		c0.497-0.236,1.31-0.235,1.807,0.001l3.866,1.838c0.497,0.236,1.241,0.132,1.654-0.232l2.676-2.676
		c0.364-0.413,0.468-1.157,0.232-1.654l-1.838-3.866c-0.236-0.497-0.237-1.31-0.001-1.807l0.575-1.393
		c0.184-0.518,0.758-1.093,1.277-1.277L93.619,123.226z M72,126.25c-3.451,0-6.25-2.798-6.25-6.25s2.798-6.25,6.25-6.25
		s6.25,2.798,6.25,6.25S75.453,126.25,72,126.25z"/>
</g>
<g>
	<g>
		<path fill="#BFBBBA" d="M72,108.337c-6.441,0-11.663,5.222-11.663,11.663S65.56,131.663,72,131.663S83.663,126.441,83.663,120
			S78.44,108.337,72,108.337z M72,125.167c-2.853,0-5.167-2.313-5.167-5.167s2.313-5.167,5.167-5.167s5.167,2.313,5.167,5.167
			S74.854,125.167,72,125.167z"/>
	</g>
</g>
<circle fill="none" stroke="#4E4C4B" stroke-miterlimit="10" cx="72" cy="120" r="12.186"/>
<path fill="#4E4C4B" d="M15.022,389.234c0.26-0.258,0.557-0.387,0.894-0.387s0.634,0.129,0.894,0.387l18.11,18.106
	c0.26,0.265,0.389,0.562,0.389,0.896s-0.129,0.636-0.389,0.894l-18.11,18.111c-0.259,0.26-0.557,0.389-0.894,0.389
	s-0.634-0.129-0.894-0.389"/>
<path fill="#4E4C4B" d="M44.171,445.856c0.259,0.26,0.388,0.558,0.388,0.894c0,0.338-0.129,0.635-0.388,0.895l-18.11,18.109
	c-0.26,0.26-0.559,0.39-0.895,0.39s-0.635-0.13-0.893-0.39L6.162,447.645c-0.26-0.26-0.389-0.557-0.389-0.895
	c0-0.336,0.129-0.634,0.389-0.894"/>
<g>
	<path fill="#4E4C4B" d="M70,157.205v22H57v-22H70 M71,156.205H56v24h15V156.205L71,156.205z"/>
</g>
<g>
	<path fill="#4E4C4B" d="M88,157.205v22H75v-22H88 M89,156.205H74v24h15V156.205L89,156.205z"/>
</g>
<g>
	<rect x="40" y="156.205" fill="#4E4C4B" width="1" height="24"/>
</g>
<g>
	<path fill="#4E4C4B" d="M37,157.205v22H9v-22H37 M38,156.205H8v24h30V156.205L38,156.205z"/>
</g>
<g>
	<path fill="#882200" d="M70,205v22H57v-22H70 M71,204H56v24h15V204L71,204z"/>
</g>
<g>
	<path fill="#882200" d="M88,205v22H75v-22H88 M89,204H74v24h15V204L89,204z"/>
</g>
<g>
	<path fill="#4E4C4B" d="M109.5,157.205v22h-5v-22H109.5 M110.5,156.205h-7v24h7V156.205L110.5,156.205z"/>
</g>
<g>
	<path fill="#4E4C4B" d="M135.5,157.205v22h-21v-22H135.5 M136.5,156.205h-23v24h23V156.205L136.5,156.205z"/>
</g>
<g>
	<path fill="#882200" d="M109.5,205v22h-5v-22H109.5 M110.5,204h-7v24h7V204L110.5,204z"/>
</g>
<g>
	<path fill="#882200" d="M135.5,205v22h-21v-22H135.5 M136.5,204h-23v24h23V204L136.5,204z"/>
</g>
<g>
	<path fill="#4E4C4B" d="M183.5,157.205v22h-28v-22H183.5 M184.5,156.205h-30v24h30V156.205L184.5,156.205z"/>
</g>
<g>
	<rect x="151.5" y="156.205" fill="#4E4C4B" width="1" height="24"/>
</g>
<g>
	<path fill="#882200" d="M183.5,205v22h-28v-22H183.5 M184.5,204h-30v24h30V204L184.5,204z"/>
</g>
<g>
	<rect x="151.5" y="204" fill="#4E4C4B" width="1" height="24"/>
</g>
<g>
	<rect x="40" y="204" fill="#4E4C4B" width="1" height="24"/>
</g>
<g>
	<path fill="#882200" d="M37,205v22H9v-22H37 M38,204H8v24h30V204L38,204z"/>
</g>
<path fill="#4E4C4B" d="M82.562,265.669c0,0,2.229-0.267,1.049,0.944l-11.033,11.095c0,0-0.666,0.858-1.269-0.017l-10.965-11.045
	c0,0-1.174-0.979,1.135-0.979h5.367L66.83,252.02c0.106-2.106,2.272-2.104,2.272-2.104l5.704,0.003c2.145,0.07,2.18,2.25,2.18,2.25
	l-0.016,13.5H82.562z"/>
<path fill="none" stroke="#4E4C4B" stroke-miterlimit="10" d="M34.562,265.669c0,0,2.229-0.267,1.049,0.944l-11.033,11.095
	c0,0-0.666,0.858-1.269-0.017l-10.966-11.045c0,0-1.175-0.979,1.135-0.979h5.367l-0.016-13.646c0.106-2.109,2.272-2.105,2.272-2.105
	l5.704,0.002c2.145,0.07,2.18,2.25,2.18,2.25l-0.016,13.5L34.562,265.669L34.562,265.669L34.562,265.669z"/>
<g>
	<path d="M26.278,300.329v9.835H36v4.24h-9.722v9.925h-4.557v-9.925H12v-4.24h9.722v-9.835H26.278z"/>
</g>
<g>
	<path d="M60,314.404v-4.24h24v4.24"/>
</g>
<g>
	<circle fill="#4E4C4B" cx="24" cy="360" r="20"/>
	<g>
		<path fill="#FFFFFF" d="M22.002,363.007l-0.029-0.759c-0.088-1.486,0.408-3.003,1.72-4.578c0.933-1.107,1.691-2.041,1.691-3.032
			c0-1.021-0.671-1.691-2.128-1.749c-0.962,0-2.129,0.35-2.887,0.874l-0.992-3.179c1.05-0.612,2.8-1.195,4.87-1.195
			c3.849,0,5.599,2.128,5.599,4.549c0,2.217-1.37,3.674-2.478,4.899c-1.079,1.195-1.517,2.333-1.488,3.646v0.524H22.002z
			 M21.244,367.031c0-1.545,1.079-2.654,2.595-2.654c1.575,0,2.596,1.109,2.625,2.654c0,1.517-1.05,2.654-2.625,2.654
			C22.294,369.686,21.244,368.548,21.244,367.031z"/>
	</g>
</g>
<g>
	<circle fill="#047CBF" cx="72" cy="360" r="20"/>
	<g>
		<path fill="#FFFFFF" d="M70.003,363.007l-0.029-0.759c-0.088-1.486,0.408-3.003,1.72-4.578c0.933-1.107,1.691-2.041,1.691-3.032
			c0-1.021-0.671-1.691-2.128-1.749c-0.962,0-2.129,0.35-2.887,0.874l-0.992-3.179c1.05-0.612,2.8-1.195,4.87-1.195
			c3.849,0,5.599,2.128,5.599,4.549c0,2.217-1.37,3.674-2.478,4.899c-1.079,1.195-1.517,2.333-1.488,3.646v0.524H70.003z
			 M69.245,367.031c0-1.545,1.079-2.654,2.595-2.654c1.575,0,2.596,1.109,2.625,2.654c0,1.517-1.05,2.654-2.625,2.654
			C70.294,369.686,69.245,368.548,69.245,367.031z"/>
	</g>
</g>
</svg>
