<svg xmlns="http://www.w3.org/2000/svg" width="192" height="960" viewBox="0 0 192 960">
  <g fill="none" fill-rule="evenodd">
    <rect width="48" height="48" x="48"/>
    <rect width="48" height="48" x="48" y="384"/>
    <rect width="48" height="48" x="48" y="432"/>
    <rect width="48" height="48" x="96"/>
    <rect width="48" height="48" x="96" y="48"/>
    <rect width="48" height="48" x="96" y="240"/>
    <rect width="48" height="48" x="96" y="288"/>
    <rect width="48" height="48" x="96" y="336"/>
    <rect width="48" height="48" x="96" y="384"/>
    <rect width="48" height="48" x="96" y="432"/>
    <rect width="48" height="48" x="144"/>
    <rect width="48" height="48" x="144" y="48"/>
    <rect width="48" height="48" x="144" y="240"/>
    <rect width="48" height="48" x="144" y="288"/>
    <rect width="48" height="48" x="144" y="336"/>
    <rect width="48" height="48" x="144" y="384"/>
    <rect width="48" height="48" x="144" y="432"/>
    <rect width="48" height="48" x="48" y="480"/>
    <rect width="48" height="48" x="48" y="864"/>
    <rect width="48" height="48" x="48" y="912"/>
    <rect width="48" height="48" y="480"/>
    <rect width="48" height="48" y="864"/>
    <rect width="48" height="48" y="912"/>
    <rect width="48" height="48" x="96" y="480"/>
    <rect width="48" height="48" x="96" y="528"/>
    <rect width="48" height="48" x="96" y="720"/>
    <rect width="48" height="48" x="96" y="768"/>
    <rect width="48" height="48" x="96" y="816"/>
    <rect width="48" height="48" x="96" y="864"/>
    <rect width="48" height="48" x="96" y="912"/>
    <rect width="48" height="48" x="144" y="480"/>
    <rect width="48" height="48" x="144" y="528"/>
    <rect width="48" height="48" x="144" y="720"/>
    <rect width="48" height="48" x="144" y="768"/>
    <rect width="48" height="48" x="144" y="816"/>
    <rect width="48" height="48" y="528"/>
    <rect width="48" height="48" y="720"/>
    <rect width="48" height="48" y="768"/>
    <rect width="48" height="48" y="816"/>
    <rect width="48" height="48" x="48" y="528"/>
    <rect width="48" height="48" x="96" y="576"/>
    <rect width="48" height="48" x="144" y="576"/>
    <rect width="48" height="48" y="576"/>
    <rect width="48" height="48" x="48" y="576"/>
    <rect width="48" height="48" x="96" y="624.206"/>
    <rect width="48" height="48" x="144" y="624.206"/>
    <rect width="48" height="48" y="624.206"/>
    <rect width="48" height="48" x="48" y="624.206"/>
    <rect width="48" height="48" x="96" y="672"/>
    <rect width="48" height="48" x="144" y="672"/>
    <rect width="48" height="48" y="672"/>
    <rect width="48" height="48" x="48" y="672"/>
    <rect width="48" height="48" x="48" y="720"/>
    <rect width="48" height="48" x="48" y="768"/>
    <rect width="48" height="48" x="48" y="816"/>
    <rect width="48" height="48" x="144" y="864"/>
    <rect width="48" height="48" x="144" y="912"/>
    <path fill="#605E5D" fill-rule="nonzero" d="M4.933,6.871 C5.57,6.018 6.87,5.871 17.619,5.933 C28.127,5.995 31.059,5.427 32.18,6.683 C32.667,7.23 33.835,12.135 35.742,19.494 C37.64,26.82 38.243,33.085 38.054,33.805 C37.815,34.724 34.151,35.73 21.744,37.305 C7.487,39.115 7.23,39.387 5.87,37.93 C4.995,36.992 4.558,30.931 4.558,22.244 C4.558,13.536 4.497,7.455 4.933,6.871 Z" opacity=".8"/>
    <path fill="#4E4C4B" fill-rule="nonzero" d="M33.178,70.009 C36.384,70.009 38.981,67.41 38.981,64.205 C38.981,61.001 36.384,58.402 33.178,58.402 C29.974,58.402 27.376,61.001 27.376,64.205 C27.375,67.41 29.974,70.009 33.178,70.009 Z M33.299,72.185 C26.772,72.185 23.266,80.043 23.266,96 L42.368,96 C42.367,77.504 39.828,72.185 33.299,72.185 Z"/>
    <path fill="#4E4C4B" fill-rule="nonzero" d="M15.244 65.289C19.031 65.289 22.1 62.22 22.1 58.433 22.1 54.647 19.031 51.577 15.244 51.577 11.458 51.577 8.388 54.647 8.388 58.433 8.388 62.22 11.458 65.289 15.244 65.289zM15.388 67.86C7.674 67.86 3.531 77.145 3.531 96L26.1 96C26.101 74.145 23.101 67.86 15.388 67.86zM70.644 65.289C74.431 65.289 77.5 62.22 77.5 58.433 77.5 54.647 74.431 51.577 70.644 51.577 66.858 51.577 63.788 54.647 63.788 58.433 63.788 62.22 66.858 65.289 70.644 65.289zM70.945 67.86C63.116 67.86 55.833 71.939 55.833 90.794L84.598 90.794C84.598 71.186 78.078 67.86 70.945 67.86z"/>
    <path fill="#4E4C4B" fill-rule="nonzero" stroke="#AFAFAF" d="M3.909,4.598 C4.546,3.745 5.846,3.598 16.595,3.66 C27.103,3.722 30.035,3.154 31.156,4.41 C31.643,4.957 32.811,9.862 34.718,17.221 C36.616,24.547 37.219,30.812 37.03,31.532 C36.791,32.451 33.127,33.457 20.72,35.032 C6.464,36.842 6.207,37.114 4.847,35.657 C3.972,34.719 3.535,28.658 3.535,19.971 C3.534,11.263 3.473,5.182 3.909,4.598 Z"/>
    <g fill="#FFF" fill-rule="nonzero" opacity=".9" transform="translate(6 8)">
      <path d="M1.304,10.332 L1.325,11.897 L16.237,11.98 L16.216,10.415 L1.304,10.332 Z M22.558,0.039 L0.92,0.01 L0.951,1.575 L22.587,1.604 L22.558,0.039 Z M23.379,3.497 L0.993,3.468 L1.023,5.033 L23.41,5.062 L23.379,3.497 Z M23.719,8.524 L23.689,6.959 L1.301,6.93 L1.332,8.495 L23.719,8.524 Z"/>
    </g>
    <path fill="#4E4C4B" fill-rule="nonzero" d="M45.618,123.226 C46.137,123.042 46.605,122.443 46.659,121.896 C46.659,121.896 46.75,120.98 46.75,120 C46.75,119.02 46.659,118.104 46.659,118.104 C46.605,117.557 46.137,116.958 45.618,116.774 L41.58,115.337 C41.061,115.153 40.487,114.578 40.304,114.06 L39.728,112.667 C39.492,112.17 39.493,111.357 39.729,110.86 L41.567,106.994 C41.803,106.497 41.699,105.753 41.335,105.34 L38.659,102.664 C38.246,102.3 37.502,102.196 37.005,102.432 L33.139,104.27 C32.642,104.506 31.829,104.507 31.332,104.271 L29.938,103.695 C29.42,103.511 28.845,102.937 28.661,102.419 L27.224,98.38 C27.04,97.861 26.441,97.393 25.894,97.339 C25.894,97.339 24.979,97.249 23.999,97.249 C23.019,97.249 22.104,97.339 22.104,97.339 C21.557,97.393 20.958,97.861 20.774,98.38 L19.337,102.419 C19.153,102.938 18.578,103.512 18.06,103.696 L16.666,104.271 C16.169,104.507 15.356,104.506 14.859,104.27 L10.993,102.432 C10.496,102.196 9.752,102.3 9.339,102.664 L6.663,105.34 C6.299,105.753 6.195,106.497 6.431,106.994 L8.269,110.86 C8.505,111.357 8.506,112.17 8.27,112.667 L7.695,114.061 C7.511,114.579 6.937,115.154 6.418,115.338 L2.38,116.774 C1.861,116.958 1.393,117.557 1.339,118.104 C1.339,118.104 1.249,119.02 1.249,120 C1.249,120.98 1.339,121.896 1.339,121.896 C1.393,122.443 1.861,123.042 2.38,123.226 L6.418,124.662 C6.937,124.846 7.511,125.421 7.695,125.939 L8.27,127.333 C8.506,127.83 8.505,128.643 8.269,129.14 L6.431,133.006 C6.195,133.503 6.299,134.247 6.663,134.66 L9.339,137.336 C9.752,137.7 10.496,137.804 10.993,137.568 L14.859,135.73 C15.356,135.494 16.169,135.493 16.666,135.729 L18.06,136.304 C18.578,136.488 19.153,137.062 19.337,137.581 L20.774,141.62 C20.958,142.139 21.557,142.607 22.104,142.661 C22.104,142.661 23.019,142.751 23.999,142.751 C24.979,142.751 25.894,142.661 25.894,142.661 C26.441,142.607 27.04,142.139 27.224,141.62 L28.661,137.581 C28.845,137.062 29.42,136.488 29.938,136.304 L31.332,135.729 C31.829,135.493 32.642,135.494 33.139,135.73 L37.005,137.568 C37.502,137.804 38.246,137.7 38.659,137.336 L41.335,134.66 C41.699,134.247 41.803,133.503 41.567,133.006 L39.729,129.14 C39.493,128.643 39.492,127.83 39.728,127.333 L40.303,125.94 C40.487,125.422 41.061,124.847 41.58,124.663 L45.618,123.226 Z M24,126.25 C20.549,126.25 17.75,123.452 17.75,120 C17.75,116.548 20.548,113.75 24,113.75 C27.452,113.75 30.25,116.548 30.25,120 C30.25,123.452 27.452,126.25 24,126.25 Z"/>
    <path fill="#7F7F7F" fill-rule="nonzero" d="M24,108.337 C17.559,108.337 12.337,113.559 12.337,120 C12.337,126.441 17.559,131.663 24,131.663 C30.441,131.663 35.662,126.441 35.662,120 C35.662,113.559 30.44,108.337 24,108.337 Z M24,125.167 C21.147,125.167 18.833,122.854 18.833,120 C18.833,117.146 21.146,114.833 24,114.833 C26.854,114.833 29.167,117.146 29.167,120 C29.167,122.854 26.854,125.167 24,125.167 Z"/>
    <circle cx="24" cy="120" r="12.186" stroke="#B2B2B2"/>
    <path fill="#7F7F7F" fill-rule="nonzero" d="M93.619,123.226 C94.138,123.042 94.606,122.443 94.66,121.896 C94.66,121.896 94.751,120.98 94.751,120 C94.751,119.02 94.66,118.104 94.66,118.104 C94.606,117.557 94.138,116.958 93.619,116.774 L89.581,115.337 C89.062,115.153 88.488,114.578 88.305,114.06 L87.729,112.667 C87.493,112.17 87.494,111.357 87.73,110.86 L89.568,106.994 C89.804,106.497 89.7,105.753 89.336,105.34 L86.66,102.664 C86.247,102.3 85.503,102.196 85.006,102.432 L81.14,104.27 C80.643,104.506 79.83,104.507 79.333,104.271 L77.939,103.695 C77.421,103.511 76.846,102.937 76.662,102.419 L75.225,98.38 C75.041,97.861 74.442,97.393 73.895,97.339 C73.895,97.339 72.98,97.249 72,97.249 C71.02,97.249 70.105,97.339 70.105,97.339 C69.558,97.393 68.959,97.861 68.775,98.38 L67.338,102.419 C67.154,102.938 66.579,103.512 66.061,103.696 L64.667,104.271 C64.17,104.507 63.357,104.506 62.86,104.27 L58.994,102.432 C58.497,102.196 57.753,102.3 57.34,102.664 L54.664,105.34 C54.3,105.753 54.196,106.497 54.432,106.994 L56.27,110.86 C56.506,111.357 56.507,112.17 56.271,112.667 L55.696,114.061 C55.512,114.579 54.938,115.154 54.419,115.338 L50.381,116.774 C49.862,116.958 49.394,117.557 49.34,118.104 C49.34,118.104 49.25,119.02 49.25,120 C49.25,120.98 49.34,121.896 49.34,121.896 C49.394,122.443 49.862,123.042 50.381,123.226 L54.419,124.662 C54.938,124.846 55.512,125.421 55.696,125.939 L56.271,127.333 C56.507,127.83 56.506,128.643 56.27,129.14 L54.432,133.006 C54.196,133.503 54.3,134.247 54.664,134.66 L57.34,137.336 C57.753,137.7 58.497,137.804 58.994,137.568 L62.86,135.73 C63.357,135.494 64.17,135.493 64.667,135.729 L66.061,136.304 C66.579,136.488 67.154,137.062 67.338,137.581 L68.775,141.62 C68.959,142.139 69.558,142.607 70.105,142.661 C70.105,142.661 71.02,142.751 72,142.751 C72.98,142.751 73.895,142.661 73.895,142.661 C74.442,142.607 75.041,142.139 75.225,141.62 L76.662,137.581 C76.846,137.062 77.421,136.488 77.939,136.304 L79.333,135.729 C79.83,135.493 80.643,135.494 81.14,135.73 L85.006,137.568 C85.503,137.804 86.247,137.7 86.66,137.336 L89.336,134.66 C89.7,134.247 89.804,133.503 89.568,133.006 L87.73,129.14 C87.494,128.643 87.493,127.83 87.729,127.333 L88.304,125.94 C88.488,125.422 89.062,124.847 89.581,124.663 L93.619,123.226 Z M72,128.125 C67.513,128.125 63.875,124.488 63.875,120 C63.875,115.513 67.512,111.875 72,111.875 C76.487,111.875 80.125,115.513 80.125,120 C80.125,124.488 76.488,128.125 72,128.125 Z"/>
    <path fill="#4E4C4B" fill-rule="nonzero" d="M15.022 389.234C15.282 388.976 15.579 388.847 15.916 388.847 16.253 388.847 16.55 388.976 16.81 389.234L34.92 407.338C35.18 407.605 35.309 407.9 35.309 408.234 35.309 408.568 35.18 408.871 34.92 409.129L16.81 427.24C16.551 427.5 16.253 427.629 15.916 427.629 15.579 427.629 15.282 427.5 15.022 427.24L15.022 389.234 15.022 389.234zM44.171 445.856C44.43 446.116 44.559 446.414 44.559 446.75 44.559 447.088 44.43 447.385 44.171 447.645L26.061 465.754C25.801 466.014 25.502 466.144 25.166 466.144 24.83 466.144 24.531 466.014 24.273 465.754L6.162 447.645C5.902 447.385 5.773 447.088 5.773 446.75 5.773 446.414 5.902 446.116 6.162 445.856L44.171 445.856zM70 157.205L70 179.205 57 179.205 57 157.205 70 157.205 70 157.205zM71 156.205L56 156.205 56 180.205 71 180.205 71 156.205 71 156.205zM88 157.205L88 179.205 75 179.205 75 157.205 88 157.205 88 157.205zM89 156.205L74 156.205 74 180.205 89 180.205 89 156.205 89 156.205z"/>
    <rect width="1" height="24" x="40" y="156.205" fill="#4E4C4B" fill-rule="nonzero"/>
    <path fill="#4E4C4B" fill-rule="nonzero" d="M37,157.205 L37,179.205 L9,179.205 L9,157.205 L37,157.205 L37,157.205 Z M38,156.205 L8,156.205 L8,180.205 L38,180.205 L38,156.205 L38,156.205 Z"/>
    <path fill="#820" fill-rule="nonzero" d="M70 205L70 227 57 227 57 205 70 205 70 205zM71 204L56 204 56 228 71 228 71 204 71 204zM88 205L88 227 75 227 75 205 88 205 88 205zM89 204L74 204 74 228 89 228 89 204 89 204z"/>
    <path fill="#4E4C4B" fill-rule="nonzero" d="M109.5 157.205L109.5 179.205 104.5 179.205 104.5 157.205 109.5 157.205 109.5 157.205zM110.5 156.205L103.5 156.205 103.5 180.205 110.5 180.205 110.5 156.205 110.5 156.205zM135.5 157.205L135.5 179.205 114.5 179.205 114.5 157.205 135.5 157.205 135.5 157.205zM136.5 156.205L113.5 156.205 113.5 180.205 136.5 180.205 136.5 156.205 136.5 156.205z"/>
    <path fill="#820" fill-rule="nonzero" d="M109.5 205L109.5 227 104.5 227 104.5 205 109.5 205 109.5 205zM110.5 204L103.5 204 103.5 228 110.5 228 110.5 204 110.5 204zM135.5 205L135.5 227 114.5 227 114.5 205 135.5 205 135.5 205zM136.5 204L113.5 204 113.5 228 136.5 228 136.5 204 136.5 204z"/>
    <path fill="#4E4C4B" fill-rule="nonzero" d="M183.5,157.205 L183.5,179.205 L155.5,179.205 L155.5,157.205 L183.5,157.205 L183.5,157.205 Z M184.5,156.205 L154.5,156.205 L154.5,180.205 L184.5,180.205 L184.5,156.205 L184.5,156.205 Z"/>
    <rect width="1" height="24" x="151.5" y="156.205" fill="#4E4C4B" fill-rule="nonzero"/>
    <path fill="#820" fill-rule="nonzero" d="M183.5,205 L183.5,227 L155.5,227 L155.5,205 L183.5,205 L183.5,205 Z M184.5,204 L154.5,204 L154.5,228 L184.5,228 L184.5,204 L184.5,204 Z"/>
    <rect width="1" height="24" x="151.5" y="204" fill="#4E4C4B" fill-rule="nonzero"/>
    <rect width="1" height="24" x="40" y="204" fill="#4E4C4B" fill-rule="nonzero"/>
    <path fill="#820" fill-rule="nonzero" d="M37,205 L37,227 L9,227 L9,205 L37,205 L37,205 Z M38,204 L8,204 L8,228 L38,228 L38,204 L38,204 Z"/>
    <path fill="#4E4C4B" fill-rule="nonzero" d="M82.562,265.669 C82.562,265.669 84.791,265.402 83.611,266.613 L72.578,277.708 C72.578,277.708 71.912,278.566 71.309,277.691 L60.344,266.646 C60.344,266.646 59.17,265.667 61.479,265.667 L66.846,265.667 L66.83,252.02 C66.936,249.916 69.102,249.916 69.102,249.916 L74.806,249.919 C76.951,249.989 76.986,252.169 76.986,252.169 L76.97,265.669 L82.562,265.669 Z"/>
    <path stroke="#4E4C4B" d="M34.562,265.669 C34.562,265.669 36.791,265.402 35.611,266.613 L24.578,277.708 C24.578,277.708 23.912,278.566 23.309,277.691 L12.343,266.646 C12.343,266.646 11.168,265.667 13.478,265.667 L18.845,265.667 L18.829,252.021 C18.935,249.912 21.101,249.916 21.101,249.916 L26.805,249.918 C28.95,249.988 28.985,252.168 28.985,252.168 L28.969,265.668 L34.562,265.669 L34.562,265.669 L34.562,265.669 Z"/>
    <polygon fill="#000" fill-rule="nonzero" points="26.278 300.329 26.278 310.164 36 310.164 36 314.404 26.278 314.404 26.278 324.329 21.721 324.329 21.721 314.404 12 314.404 12 310.164 21.722 310.164 21.722 300.329"/>
    <polygon fill="#000" fill-rule="nonzero" points="60 314.404 60 310.164 84 310.164 84 314.404"/>
    <g fill-rule="nonzero" transform="translate(4 340)">
      <circle cx="20" cy="20" r="20" fill="#4E4C4B"/>
      <path fill="#FFF" d="M18.002,23.007 L17.973,22.248 C17.885,20.762 18.381,19.245 19.693,17.67 C20.626,16.563 21.384,15.629 21.384,14.639 C21.384,13.618 20.713,12.948 19.256,12.889 C18.294,12.889 17.127,13.239 16.369,13.764 L15.377,10.584 C16.427,9.973 18.177,9.389 20.247,9.389 C24.096,9.389 25.846,11.518 25.846,13.938 C25.846,16.155 24.476,17.612 23.368,18.837 C22.289,20.032 21.851,21.17 21.88,22.483 L21.88,23.007 L18.002,23.007 L18.002,23.007 Z M17.244,27.031 C17.244,25.486 18.323,24.377 19.839,24.377 C21.414,24.377 22.435,25.486 22.464,27.031 C22.464,28.548 21.414,29.685 19.839,29.685 C18.294,29.686 17.244,28.548 17.244,27.031 Z"/>
    </g>
    <g fill-rule="nonzero" transform="translate(52 340)">
      <circle cx="20" cy="20" r="20" fill="#047CBF"/>
      <path fill="#FFF" d="M18.003,23.007 L17.974,22.248 C17.886,20.762 18.382,19.245 19.694,17.67 C20.627,16.563 21.385,15.629 21.385,14.639 C21.385,13.618 20.714,12.948 19.257,12.889 C18.295,12.889 17.128,13.239 16.37,13.764 L15.378,10.584 C16.428,9.973 18.178,9.389 20.248,9.389 C24.097,9.389 25.847,11.518 25.847,13.938 C25.847,16.155 24.477,17.612 23.369,18.837 C22.29,20.032 21.852,21.17 21.881,22.483 L21.881,23.007 L18.003,23.007 L18.003,23.007 Z M17.245,27.031 C17.245,25.486 18.324,24.377 19.84,24.377 C21.415,24.377 22.436,25.486 22.465,27.031 C22.465,28.548 21.415,29.685 19.84,29.685 C18.294,29.686 17.245,28.548 17.245,27.031 Z"/>
    </g>
    <path stroke="#FFF" stroke-linecap="square" stroke-width="2" d="M8.167 483.25L8.167 522.251M18.102 500.166L18.102 512.168M18.102 522.251L8.167 522.251M18.102 500.166L8.167 500.166M28.167 500.166L18.233 500.166M28.167 512.168L18.233 512.168"/>
    <circle cx="34.872" cy="500.166" r="3.5" fill="#FFF" fill-rule="nonzero"/>
    <circle cx="34.872" cy="512.168" r="3.5" fill="#FFF" fill-rule="nonzero"/>
    <circle cx="25.247" cy="522.251" r="3.5" fill="#FFF" fill-rule="nonzero"/>
    <path stroke="#FFF" stroke-linecap="square" stroke-width="2" d="M18.102,489.06 L8.167,489.06"/>
    <circle cx="25.247" cy="489.06" r="3.5" fill="#FFF" fill-rule="nonzero"/>
    <rect width="36" height="4" x="54" y="488" fill="#FFF" fill-rule="nonzero"/>
    <rect width="36" height="4" x="54" y="496" fill="#FFF" fill-rule="nonzero"/>
    <rect width="36" height="4" x="54" y="504" fill="#FFF" fill-rule="nonzero"/>
    <rect width="36" height="4" x="54" y="512" fill="#FFF" fill-rule="nonzero"/>
    <path fill="#FFF" fill-rule="nonzero" d="M138.852,518.444 L126.557,506.178 C129.981,500.615 129.289,493.24 124.458,488.422 C118.805,482.779 109.634,482.779 103.98,488.422 C98.325,494.063 98.325,503.213 103.98,508.857 C108.275,513.576 116.181,514.088 121.668,510.967 L134.004,523.278 C135.783,525.052 137.143,523.883 138.258,522.773 C139.372,521.662 140.628,520.221 138.852,518.444 Z M120.887,505.237 C117.178,508.934 111.164,508.934 107.456,505.237 C103.747,501.536 103.747,495.536 107.456,491.836 C111.164,488.135 117.178,488.135 120.887,491.836 C124.596,495.536 124.596,501.536 120.887,505.237 Z"/>
  </g>
</svg>
