<svg xmlns="http://www.w3.org/2000/svg" xmlns:xlink="http://www.w3.org/1999/xlink" width="384" height="1152" version="1.1" viewBox="0 0 384 1152">
  <defs>
    <circle id="icon_sprite-b" cx="16" cy="16" r="16"/>
    <rect id="icon_sprite-a" width="32" height="24" x="8" y="12"/>
    <mask id="icon_sprite-d" width="32" height="24" x="0" y="0" fill="#fff" maskContentUnits="userSpaceOnUse" maskUnits="objectBoundingBox">
      <use xlink:href="#icon_sprite-a"/>
    </mask>
    <circle id="icon_sprite-f" cx="33" cy="24" r="10"/>
    <filter id="icon_sprite-e" width="192.5%" height="192.5%" x="-46.2%" y="-43.8%" filterUnits="objectBoundingBox">
      <feOffset dx="0" dy=".5" in="SourceAlpha" result="shadowOffsetOuter1"/>
      <feGaussianBlur in="shadowOffsetOuter1" result="shadowBlurOuter1" stdDeviation="3"/>
      <feColorMatrix in="shadowBlurOuter1" type="matrix" values="0 0 0 0 0   0 0 0 0 0   0 0 0 0 0  0 0 0 0.5 0"/>
    </filter>
    <circle id="icon_sprite-h" cx="24" cy="24" r="10"/>
    <filter id="icon_sprite-g" width="147.5%" height="147.5%" x="-23.8%" y="-21.2%" filterUnits="objectBoundingBox">
      <feOffset dx="0" dy=".5" in="SourceAlpha" result="shadowOffsetOuter1"/>
      <feGaussianBlur in="shadowOffsetOuter1" result="shadowBlurOuter1" stdDeviation="1.5"/>
      <feColorMatrix in="shadowBlurOuter1" type="matrix" values="0 0 0 0 0   0 0 0 0 0   0 0 0 0 0  0 0 0 0.5 0"/>
    </filter>
  </defs>
  <g fill="none" fill-rule="evenodd" stroke="none" stroke-width="1">
    <g fill="#7F7F7F" fill-rule="nonzero" transform="translate(96 48)">
      <polygon points="22 22 8 22 8 8 22 8"/>
      <polygon points="22 40 8 40 8 26 22 26"/>
      <polygon points="40 22 26 22 26 8 40 8"/>
      <polygon points="40 40 26 40 26 26 40 26"/>
    </g>
    <path fill="#7F7F7F" fill-rule="nonzero" d="M34.647,20.432 C37.853,20.432 40.45,17.833 40.45,14.628 C40.45,11.424 37.853,8.825 34.647,8.825 C31.443,8.825 28.845,11.424 28.845,14.628 C28.844,17.833 31.443,20.432 34.647,20.432 Z M16.857,18.283 C22.1742113,18.283 25.2515743,21.2699398 26.649989,30.2858506 C28.3178505,25.1525841 31.0537939,22.608 34.768,22.608 C41.297,22.608 43.836,27.927 43.837,46.423 L43.837,46.423 L27.569,46.422 L27.569,46.423 L5,46.423 C5,27.568 9.143,18.283 16.857,18.283 Z M16.713,2 C20.5,2 23.569,5.07 23.569,8.856 C23.569,12.643 20.5,15.712 16.713,15.712 C12.927,15.712 9.857,12.643 9.857,8.856 C9.857,5.07 12.927,2 16.713,2 Z" transform="translate(0 48)"/>
    <path fill="#7F7F7F" fill-rule="nonzero" d="M24.811,17.712 C28.598,17.712 31.667,14.643 31.667,10.856 C31.667,7.07 28.598,4 24.811,4 C21.025,4 17.955,7.07 17.955,10.856 C17.955,14.643 21.025,17.712 24.811,17.712 Z M25.112,20.283 C17.283,20.283 10,25.362 10,44.217 L38.765,44.217 C38.765,24.609 32.245,20.283 25.112,20.283 Z" transform="translate(48 48)"/>
    <g transform="translate(0 96)">
      <path fill="#4E4C4B" fill-rule="nonzero" d="M45.369,26.977 C45.888,26.793 46.356,26.194 46.41,25.647 C46.41,25.647 46.501,24.731 46.501,23.751 C46.501,22.771 46.41,21.855 46.41,21.855 C46.356,21.308 45.888,20.709 45.369,20.525 L41.331,19.088 C40.812,18.904 40.238,18.329 40.055,17.811 L39.479,16.418 C39.243,15.921 39.244,15.108 39.48,14.611 L41.318,10.745 C41.554,10.248 41.45,9.504 41.086,9.091 L38.41,6.415 C37.997,6.051 37.253,5.947 36.756,6.183 L32.89,8.021 C32.393,8.257 31.58,8.258 31.083,8.022 L29.689,7.446 C29.171,7.262 28.596,6.688 28.412,6.17 L26.975,2.131 C26.791,1.612 26.192,1.144 25.645,1.09 C25.645,1.09 24.73,1 23.75,1 C22.77,1 21.855,1.09 21.855,1.09 C21.308,1.144 20.709,1.612 20.525,2.131 L19.088,6.17 C18.904,6.689 18.329,7.263 17.811,7.447 L16.417,8.022 C15.92,8.258 15.107,8.257 14.61,8.021 L10.744,6.183 C10.247,5.947 9.503,6.051 9.09,6.415 L6.414,9.091 C6.05,9.504 5.946,10.248 6.182,10.745 L8.02,14.611 C8.256,15.108 8.257,15.921 8.021,16.418 L7.446,17.812 C7.262,18.33 6.688,18.905 6.169,19.089 L2.131,20.525 C1.612,20.709 1.144,21.308 1.09,21.855 C1.09,21.855 1,22.771 1,23.751 C1,24.731 1.09,25.647 1.09,25.647 C1.144,26.194 1.612,26.793 2.131,26.977 L6.169,28.413 C6.688,28.597 7.262,29.172 7.446,29.69 L8.021,31.084 C8.257,31.581 8.256,32.394 8.02,32.891 L6.182,36.757 C5.946,37.254 6.05,37.998 6.414,38.411 L9.09,41.087 C9.503,41.451 10.247,41.555 10.744,41.319 L14.61,39.481 C15.107,39.245 15.92,39.244 16.417,39.48 L17.811,40.055 C18.329,40.239 18.904,40.813 19.088,41.332 L20.525,45.371 C20.709,45.89 21.308,46.358 21.855,46.412 C21.855,46.412 22.77,46.502 23.75,46.502 C24.73,46.502 25.645,46.412 25.645,46.412 C26.192,46.358 26.791,45.89 26.975,45.371 L28.412,41.332 C28.596,40.813 29.171,40.239 29.689,40.055 L31.083,39.48 C31.58,39.244 32.393,39.245 32.89,39.481 L36.756,41.319 C37.253,41.555 37.997,41.451 38.41,41.087 L41.086,38.411 C41.45,37.998 41.554,37.254 41.318,36.757 L39.48,32.891 C39.244,32.394 39.243,31.581 39.479,31.084 L40.054,29.691 C40.238,29.173 40.812,28.598 41.331,28.414 L45.369,26.977 Z M23.751,30.001 C20.3,30.001 17.501,27.203 17.501,23.751 C17.501,20.299 20.299,17.501 23.751,17.501 C27.203,17.501 30.001,20.299 30.001,23.751 C30.001,27.203 27.203,30.001 23.751,30.001 Z"/>
      <path fill="#7F7F7F" fill-rule="nonzero" d="M23.751,12.088 C17.31,12.088 12.088,17.31 12.088,23.751 C12.088,30.192 17.31,35.414 23.751,35.414 C30.192,35.414 35.413,30.192 35.413,23.751 C35.413,17.31 30.191,12.088 23.751,12.088 Z M23.751,28.918 C20.898,28.918 18.584,26.605 18.584,23.751 C18.584,20.897 20.897,18.584 23.751,18.584 C26.605,18.584 28.918,20.897 28.918,23.751 C28.918,26.605 26.605,28.918 23.751,28.918 Z"/>
      <circle cx="23.751" cy="23.751" r="12.186" stroke="#B2B2B2"/>
    </g>
    <path fill="#7F7F7F" fill-rule="nonzero" d="M45.369,26.977 C45.888,26.793 46.356,26.194 46.41,25.647 C46.41,25.647 46.501,24.731 46.501,23.751 C46.501,22.771 46.41,21.855 46.41,21.855 C46.356,21.308 45.888,20.709 45.369,20.525 L41.331,19.088 C40.812,18.904 40.238,18.329 40.055,17.811 L39.479,16.418 C39.243,15.921 39.244,15.108 39.48,14.611 L41.318,10.745 C41.554,10.248 41.45,9.504 41.086,9.091 L38.41,6.415 C37.997,6.051 37.253,5.947 36.756,6.183 L32.89,8.021 C32.393,8.257 31.58,8.258 31.083,8.022 L29.689,7.446 C29.171,7.262 28.596,6.688 28.412,6.17 L26.975,2.131 C26.791,1.612 26.192,1.144 25.645,1.09 C25.645,1.09 24.73,1 23.75,1 C22.77,1 21.855,1.09 21.855,1.09 C21.308,1.144 20.709,1.612 20.525,2.131 L19.088,6.17 C18.904,6.689 18.329,7.263 17.811,7.447 L16.417,8.022 C15.92,8.258 15.107,8.257 14.61,8.021 L10.744,6.183 C10.247,5.947 9.503,6.051 9.09,6.415 L6.414,9.091 C6.05,9.504 5.946,10.248 6.182,10.745 L8.02,14.611 C8.256,15.108 8.257,15.921 8.021,16.418 L7.446,17.812 C7.262,18.33 6.688,18.905 6.169,19.089 L2.131,20.525 C1.612,20.709 1.144,21.308 1.09,21.855 C1.09,21.855 1,22.771 1,23.751 C1,24.731 1.09,25.647 1.09,25.647 C1.144,26.194 1.612,26.793 2.131,26.977 L6.169,28.413 C6.688,28.597 7.262,29.172 7.446,29.69 L8.021,31.084 C8.257,31.581 8.256,32.394 8.02,32.891 L6.182,36.757 C5.946,37.254 6.05,37.998 6.414,38.411 L9.09,41.087 C9.503,41.451 10.247,41.555 10.744,41.319 L14.61,39.481 C15.107,39.245 15.92,39.244 16.417,39.48 L17.811,40.055 C18.329,40.239 18.904,40.813 19.088,41.332 L20.525,45.371 C20.709,45.89 21.308,46.358 21.855,46.412 C21.855,46.412 22.77,46.502 23.75,46.502 C24.73,46.502 25.645,46.412 25.645,46.412 C26.192,46.358 26.791,45.89 26.975,45.371 L28.412,41.332 C28.596,40.813 29.171,40.239 29.689,40.055 L31.083,39.48 C31.58,39.244 32.393,39.245 32.89,39.481 L36.756,41.319 C37.253,41.555 37.997,41.451 38.41,41.087 L41.086,38.411 C41.45,37.998 41.554,37.254 41.318,36.757 L39.48,32.891 C39.244,32.394 39.243,31.581 39.479,31.084 L40.054,29.691 C40.238,29.173 40.812,28.598 41.331,28.414 L45.369,26.977 Z M23.75,31.876 C19.263,31.876 15.625,28.239 15.625,23.751 C15.625,19.264 19.262,15.626 23.75,15.626 C28.237,15.626 31.875,19.264 31.875,23.751 C31.875,28.239 28.238,31.876 23.75,31.876 Z" transform="translate(48 96)"/>
    <g transform="translate(104 104)">
      <mask id="icon_sprite-c" fill="#fff">
        <use xlink:href="#icon_sprite-b"/>
      </mask>
      <use fill="#D8D8D8" xlink:href="#icon_sprite-b"/>
      <g mask="url(#icon_sprite-c)">
        <g transform="translate(-8 -8)">
          <polygon fill="#F90" points="0 0 24 0 24 24 0 24"/>
          <polygon fill="#047CBF" points="0 24 24 24 24 48 0 48"/>
          <polygon fill="#820" points="24 0 48 0 48 24 24 24"/>
          <polygon fill="#B0B0B0" points="24 24 48 24 48 48 24 48"/>
        </g>
      </g>
    </g>
    <g transform="translate(0 144)">
      <rect width="27.5" height="22.5" x="8.75" y="12.75" stroke="#7F7F7F" stroke-width="1.5"/>
      <rect width="2" height="24" x="39" y="12" fill="#7F7F7F"/>
    </g>
    <g stroke="#7F7F7F" stroke-width="1.5" transform="translate(48 144)">
      <rect width="13.5" height="22.5" x="8.75" y="12.75"/>
      <rect width="13.5" height="22.5" x="26.75" y="12.75"/>
    </g>
    <g stroke="#7F7F7F" stroke-width="1.5" transform="translate(96 144)">
      <rect width="5.5" height="22.5" x="8.75" y="12.75"/>
      <rect width="21.5" height="22.5" x="18.75" y="12.75"/>
    </g>
    <g transform="translate(144 144)">
      <rect width="2" height="24" x="8" y="12" fill="#7F7F7F"/>
      <rect width="27.5" height="22.5" x="12.75" y="12.75" stroke="#7F7F7F" stroke-width="1.5"/>
    </g>
    <g transform="translate(0 192)">
      <rect width="27.5" height="22.5" x="8.75" y="12.75" stroke="#047CBF" stroke-width="1.5"/>
      <rect width="2" height="24" x="39" y="12" fill="#047CBF"/>
    </g>
    <g stroke="#047CBF" stroke-width="1.5" transform="translate(48 192)">
      <rect width="13.5" height="22.5" x="8.75" y="12.75"/>
      <rect width="13.5" height="22.5" x="26.75" y="12.75"/>
    </g>
    <g stroke="#047CBF" stroke-width="1.5" transform="translate(95 192)">
      <rect width="5.5" height="22.5" x="8.75" y="12.75"/>
      <rect width="21.5" height="22.5" x="18.75" y="12.75"/>
    </g>
    <g transform="translate(144 192)">
      <rect width="2" height="24" x="8" y="12" fill="#047CBF"/>
      <rect width="27.5" height="22.5" x="12.75" y="12.75" stroke="#047CBF" stroke-width="1.5"/>
    </g>
    <path stroke="#4E4C4B" d="M34.5178146,25.753 C34.5178146,25.753 36.7468146,25.486 35.5668146,26.697 L24.5338146,37.792 C24.5338146,37.792 23.8678146,38.65 23.2648146,37.775 L12.2988146,26.73 C12.2988146,26.73 11.1238146,25.751 13.4338146,25.751 L18.8008146,25.751 L18.7848146,12.105 C18.8908146,9.99600003 21.0568146,10 21.0568146,10 L26.7608146,10.002 C28.9058146,10.072 28.9408146,12.252 28.9408146,12.252 L28.9248146,25.752 L34.5178146,25.753 L34.5178146,25.753 L34.5178146,25.753 Z" transform="translate(0 240)"/>
    <path fill="#4E4C4B" fill-rule="nonzero" d="M34.5164364,25.753 C34.5164364,25.753 36.7454364,25.486 35.5654364,26.697 L24.5324364,37.792 C24.5324364,37.792 23.8664364,38.65 23.2634364,37.775 L12.2984364,26.73 C12.2984364,26.73 11.1244364,25.751 13.4334364,25.751 L18.8004364,25.751 L18.7844364,12.104 C18.8904364,10 21.0564364,10 21.0564364,10 L26.7604364,10.003 C28.9054364,10.073 28.9404364,12.253 28.9404364,12.253 L28.9244364,25.753 L34.5164364,25.753 Z" transform="translate(48 240)"/>
    <polygon fill="#000" fill-rule="nonzero" points="26.278 12 26.278 21.835 36 21.835 36 26.075 26.278 26.075 26.278 36 21.721 36 21.721 26.075 12 26.075 12 21.835 21.722 21.835 21.722 12" transform="translate(0 288)"/>
    <polygon fill="#000" fill-rule="nonzero" points="12 26.24 12 22 36 22 36 26.24" transform="translate(48 288)"/>
    <g fill-rule="nonzero" transform="translate(4 340)">
      <circle cx="20" cy="20" r="20" fill="#4E4C4B"/>
      <path fill="#FFF" d="M18.002,23.007 L17.973,22.248 C17.885,20.762 18.381,19.245 19.693,17.67 C20.626,16.563 21.384,15.629 21.384,14.639 C21.384,13.618 20.713,12.948 19.256,12.889 C18.294,12.889 17.127,13.239 16.369,13.764 L15.377,10.584 C16.427,9.973 18.177,9.389 20.247,9.389 C24.096,9.389 25.846,11.518 25.846,13.938 C25.846,16.155 24.476,17.612 23.368,18.837 C22.289,20.032 21.851,21.17 21.88,22.483 L21.88,23.007 L18.002,23.007 L18.002,23.007 Z M17.244,27.031 C17.244,25.486 18.323,24.377 19.839,24.377 C21.414,24.377 22.435,25.486 22.464,27.031 C22.464,28.548 21.414,29.685 19.839,29.685 C18.294,29.686 17.244,28.548 17.244,27.031 Z"/>
    </g>
    <g fill-rule="nonzero" transform="translate(52 340)">
      <circle cx="20" cy="20" r="20" fill="#047CBF"/>
      <path fill="#FFF" d="M18.003,23.007 L17.974,22.248 C17.886,20.762 18.382,19.245 19.694,17.67 C20.627,16.563 21.385,15.629 21.385,14.639 C21.385,13.618 20.714,12.948 19.257,12.889 C18.295,12.889 17.128,13.239 16.37,13.764 L15.378,10.584 C16.428,9.973 18.178,9.389 20.248,9.389 C24.097,9.389 25.847,11.518 25.847,13.938 C25.847,16.155 24.477,17.612 23.369,18.837 C22.29,20.032 21.852,21.17 21.881,22.483 L21.881,23.007 L18.003,23.007 L18.003,23.007 Z M17.245,27.031 C17.245,25.486 18.324,24.377 19.84,24.377 C21.415,24.377 22.436,25.486 22.465,27.031 C22.465,28.548 21.415,29.685 19.84,29.685 C18.294,29.686 17.245,28.548 17.245,27.031 Z"/>
    </g>
    <path fill="#4E4C4B" fill-rule="nonzero" d="M19.6451915,14 C20.2653588,14 20.8119157,14.2305878 21.290383,14.6917634 L29.2841393,22.3912479 C29.7626066,22.868511 30,23.3958242 30,23.99285 C30,24.5898758 29.7626066,25.131489 29.2841393,25.5926646 L21.290383,33.3046616 C20.8137559,33.7694122 20.2653588,34 19.6451915,34 C19.0250242,34 18,33.5761941 18,32.2134455 L18,15.8727805 C18,14.4091575 19.0250242,14 19.6451915,14 Z" transform="translate(0 384)"/>
    <path fill="#4E4C4B" fill-rule="nonzero" d="M34,19.6451915 C34,20.2653588 33.7694122,20.8119157 33.3082366,21.290383 L25.6087521,29.2841393 C25.131489,29.7626066 24.6041758,30 24.00715,30 C23.4101242,30 22.868511,29.7626066 22.4073354,29.2841393 L14.6953384,21.290383 C14.2305878,20.8137559 14,20.2653588 14,19.6451915 C14,19.0250242 14.4238059,18 15.7865545,18 L32.1272195,18 C33.5908425,18 34,19.0250242 34,19.6451915 Z" transform="translate(48 384)"/>
    <path fill="#7F7F7F" fill-rule="nonzero" stroke="#4E4C4B" stroke-width="1.5" d="M19.7218614,12.75 L24.6794904,18.8426102 L37.7866552,18.8426102 C38.1913203,18.8426102 38.5575285,19.0055579 38.8224895,19.269578 C39.086614,19.5327647 39.25,19.8963707 39.25,20.2980957 L39.25,20.2980957 L39.25,34.1145145 C39.25,34.5168279 39.0876986,34.8809854 38.8248969,35.1445043 C38.5627526,35.4073641 38.2006062,35.57 37.8005172,35.57 L37.8005172,35.57 L10.1994828,35.57 C9.80118496,35.57 9.43870489,35.4063144 9.17577215,35.1431844 C8.91359242,34.880808 8.75,34.5188951 8.75,34.1188673 L8.75,34.1188673 L8.75,14.2011327 C8.75,13.8002891 8.91284227,13.4379948 9.17605829,13.1758267 C9.44059178,12.9123464 9.80625229,12.75 10.209931,12.75 L10.209931,12.75 L19.7218614,12.75 Z" transform="translate(0 432)"/>
    <g fill="#7F7F7F" transform="translate(9 542)">
      <polygon points="0 0 30 0 30 2 0 2"/>
      <polygon points="0 6 30 6 30 8 0 8"/>
      <polygon points="0 12 30 12 30 14 0 14"/>
      <polygon points="0 18 23.226 18 23.226 20 0 20"/>
    </g>
    <use stroke="#7F7F7F" stroke-dasharray="2 2 2 2" stroke-width="4" mask="url(#icon_sprite-d)" transform="translate(0 576)" xlink:href="#icon_sprite-a"/>
    <rect width="30" height="22" x="9" y="13" stroke="#7F7F7F" stroke-width="2" transform="translate(48 576)"/>
    <g stroke="#4E4C4B" stroke-width="1.5" transform="translate(56 444)">
      <path fill="#FFF" fill-rule="nonzero" d="M25.1618234,0.75 L30.9464578,7.33366193 C31.0366516,7.59797417 31.25,8.31176313 31.25,9.14982455 L31.25,9.14982455 L31.25,22.1145145 C31.25,22.5168279 31.0876986,22.8809854 30.8248969,23.1445043 C30.5627526,23.4073641 30.2006062,23.57 29.8005172,23.57 L29.8005172,23.57 L2.19948276,23.57 C1.80118496,23.57 1.43870489,23.4063144 1.17577215,23.1431844 C0.91359242,22.880808 0.75,22.5188951 0.75,22.1188673 L0.75,22.1188673 L0.75,2.20113273 C0.75,1.80028907 0.912842266,1.43799484 1.17605829,1.17582675 C1.44059178,0.91234643 1.80625229,0.75 2.20993103,0.75 L2.20993103,0.75 L25.1618234,0.75 Z"/>
      <line x1="22.75" x2="22.75" y1="1.5" y2="8.5" stroke-linecap="square"/>
      <line x1="23.5" x2="30.5" y1="8.75" y2="8.75" stroke-linecap="square"/>
    </g>
    <g transform="translate(57 542)">
      <rect width="2" height="20" x="0" y="0" fill="#047CBF"/>
      <rect width="25" height="2" x="5" y="0" fill="#7F7F7F"/>
      <rect width="25" height="2" x="5" y="6" fill="#7F7F7F"/>
      <rect width="25" height="2" x="5" y="12" fill="#7F7F7F"/>
      <rect width="19" height="2" x="5" y="18" fill="#7F7F7F"/>
    </g>
    <polygon fill="#047CBF" points="26.505 13 25.433 22.794 35.327 20.028 36 24.838 26.555 25.536 32.685 33.66 28.224 36.053 23.838 27.131 19.925 36.053 15.315 33.66 21.346 25.536 12 24.838 12.723 20.028 22.467 22.794 21.396 13" transform="translate(96 432)"/>
    <g transform="translate(96 528)">
      <path fill="#7F7F7F" d="M14,12 C17.3333333,12 20.6666667,12 24,12 C27.3333333,12 30.6666667,12 34,12 C37.3137085,12 40,14.6862915 40,18 C40,20 40,22 40,24 C40,26 40,28 40,30 C40,33.3137085 37.3137085,36 34,36 C30.7994792,36 27.5989583,36 24.3984375,36 C20.9322917,36 17.4661458,36 14,36 C10.6862915,36 8,33.3137085 8,30 C8,28 8,26 8,24 C8,22 8,20 8,18 C8,14.6862915 10.6862915,12 14,12 Z"/>
      <path fill="#FFF" fill-rule="nonzero" d="M20,17.139704 C20.1281609,17.046568 20.2745601,17 20.4406763,17 C20.6067925,17 20.7531917,17.046568 20.8813526,17.139704 L29.8082516,23.675107 C29.9364125,23.7714919 30,23.8779846 30,23.998556 C30,24.1191274 29.9364125,24.2285081 29.8082516,24.3216441 L20.8813526,30.859574 C20.7536846,30.953432 20.6067925,31 20.4406763,31 C20.2745601,31 20.1281609,30.953432 20,30.859574 L20,17.139704 L20,17.139704 Z"/>
    </g>
    <g fill="#7F7F7F" transform="translate(144 432)">
      <polygon fill-rule="nonzero" points="12 16 32 16 32 36 23.124 36 23.124 38 34 38 34 14 10 14 10 25.077 12 25.077" transform="rotate(180 22 26)"/>
      <path d="M21,14.4017304 L18.9426099,14.4017304 L18.942,3.512 L1.45479446,21 L-1.0658141e-14,19.5452055 L0.72739723,18.8178083 L17.487,2.057 L5.56957457,2.05739006 L5.56957457,0 L21,0 L21,14.4017304 Z" transform="translate(19 8)"/>
    </g>
    <path fill="#7F7F7F" fill-rule="nonzero" d="M32.5,9 L34,9 L34,29.84375 C34,32.3463027 31.6494531,34.375 28.75,34.375 C25.8505469,34.375 23.5,32.3463027 23.5,29.84375 C23.5,27.3411406 25.8505469,25.3125 28.75,25.3125 C30.2191562,25.3125 31.5470781,25.8335937 32.5,26.6730078 L32.5,16.25 L20.5,19.4722285 L20.5,33.46875 C20.5,35.9713027 18.1495,38 15.25,38 C12.3505,38 10,35.9713027 10,33.46875 C10,30.9661406 12.3505,28.9375 15.25,28.9375 C16.7191562,28.9375 18.0470781,29.4585937 19,30.2980078 L19,12.625 L32.5,9 Z" transform="translate(144 528)"/>
    <g transform="translate(0 480)">
      <line x1="23" x2="12" y1="28" y2="20" stroke="#FFF" stroke-linecap="square" stroke-width="2" transform="matrix(1 0 0 -1 0 48)"/>
      <line x1="23" x2="34" y1="28" y2="20" stroke="#FFF" stroke-linecap="square" stroke-width="2" transform="matrix(1 0 0 -1 0 48)"/>
      <rect width="12" height="12" x="6" y="28" fill="#FFF" fill-rule="nonzero" transform="matrix(1 0 0 -1 0 68)"/>
      <rect width="12" height="12" x="28" y="28" fill="#FFF" fill-rule="nonzero" transform="matrix(1 0 0 -1 0 68)"/>
      <rect width="12" height="12" x="17" y="8" fill="#FFF" fill-rule="nonzero" transform="matrix(1 0 0 -1 0 28)"/>
    </g>
    <g fill="#FFF" fill-rule="nonzero" transform="translate(48 480)">
      <rect width="36" height="4" x="6" y="10"/>
      <rect width="36" height="4" x="6" y="18"/>
      <rect width="36" height="4" x="6" y="26"/>
      <rect width="36" height="4" x="6" y="34"/>
    </g>
    <g transform="translate(168 504)">
      <circle cx="10" cy="10" r="10" fill="#047CBF"/>
      <path fill="#FFF" d="M9,13 L12,13 L12,16 L9,16 L9,13 Z M12,7.072 L11.2094595,12 L9.77027027,12 L9,7.072 L9,4 L12,4 L12,7.072 Z"/>
    </g>
    <path fill="#4E4C4B" fill-rule="nonzero" d="M31,32 L38,32 L38,30.4285714 C38,28.5401786 36.4277344,27 34.5,27 C32.5722656,27 31,28.5401786 31,30.4285714 L31,32 Z M43,33.9772727 L43,42.5681818 C43,43.3586648 42.3654514,44 41.5833333,44 L27.4166667,44 C26.6345486,44 26,43.3586648 26,42.5681818 L26,33.9772727 C26,33.1867898 26.6345486,32.5454545 27.4166667,32.5454545 L27.8888889,32.5454545 L27.8888889,30.6818182 C27.8888889,27.0127841 30.8697917,24 34.5,24 C38.1302083,24 41.1111111,27.0127841 41.1111111,30.6818182 L41.1111111,32.5454545 L41.5833333,32.5454545 C42.3654514,32.5454545 43,33.1867898 43,33.9772727 Z" transform="translate(192 480)"/>
    <path fill="#FFF" fill-rule="nonzero" d="M43.11325,38.25425 L30.81825,25.98825 C34.24225,20.42525 33.55025,13.05025 28.71925,8.23225 C23.06625,2.58925 13.89525,2.58925 8.24125,8.23225 C2.58625,13.87325 2.58625,23.02325 8.24125,28.66725 C12.53625,33.38625 20.44225,33.89825 25.92925,30.77725 L38.26525,43.08825 C40.04425,44.86225 41.40425,43.69325 42.51925,42.58325 C43.63325,41.47225 44.88925,40.03125 43.11325,38.25425 Z M25.14825,25.04725 C21.43925,28.74425 15.42525,28.74425 11.71725,25.04725 C8.00825,21.34625 8.00825,15.34625 11.71725,11.64625 C15.42525,7.94525 21.43925,7.94525 25.14825,11.64625 C28.85725,15.34625 28.85725,21.34625 25.14825,25.04725 Z" transform="translate(96 480)"/>
    <g stroke="#7F7F7F" stroke-width="2" transform="translate(0 624)">
      <rect width="12" height="22" x="9" y="13"/>
      <rect width="12" height="22" x="27" y="13"/>
    </g>
    <g stroke-width="2" transform="translate(48 624)">
      <rect width="12" height="22" x="9" y="13" stroke="#7F7F7F"/>
      <rect width="12" height="22" x="27" y="13" stroke="#CACACA"/>
    </g>
    <g stroke-width="2" transform="translate(96 624)">
      <rect width="12" height="22" x="9" y="13" stroke="#CACACA"/>
      <rect width="12" height="22" x="27" y="13" stroke="#7F7F7F"/>
    </g>
    <g stroke="#7F7F7F" stroke-width="2" transform="translate(0 672)">
      <rect width="18" height="22" x="9" y="13"/>
      <rect width="6" height="22" x="33" y="13"/>
    </g>
    <g stroke-width="2" transform="translate(48 672)">
      <rect width="18" height="22" x="9" y="13" stroke="#7F7F7F"/>
      <rect width="6" height="22" x="33" y="13" stroke="#CACACA"/>
    </g>
    <g stroke-width="2" transform="translate(96 672)">
      <rect width="18" height="22" x="9" y="13" stroke="#CACACA"/>
      <rect width="6" height="22" x="33" y="13" stroke="#7F7F7F"/>
    </g>
    <g stroke="#7F7F7F" stroke-width="2" transform="translate(0 720)">
      <rect width="6" height="22" x="33" y="13"/>
      <rect width="6" height="22" x="9" y="13"/>
      <rect width="6" height="22" x="21" y="13"/>
    </g>
    <g stroke-width="2" transform="translate(48 720)">
      <rect width="6" height="22" x="33" y="13" stroke="#CACACA"/>
      <rect width="6" height="22" x="9" y="13" stroke="#7F7F7F"/>
      <rect width="6" height="22" x="21" y="13" stroke="#CACACA"/>
    </g>
    <g stroke-width="2" transform="translate(96 720)">
      <rect width="6" height="22" x="33" y="13" stroke="#CACACA"/>
      <rect width="6" height="22" x="9" y="13" stroke="#CACACA"/>
      <rect width="6" height="22" x="21" y="13" stroke="#7F7F7F"/>
    </g>
    <g stroke-width="2" transform="translate(144 720)">
      <rect width="6" height="22" x="33" y="13" stroke="#7F7F7F"/>
      <rect width="6" height="22" x="9" y="13" stroke="#CACACA"/>
      <rect width="6" height="22" x="21" y="13" stroke="#CACACA"/>
    </g>
    <path fill="#4E4C4B" fill-rule="nonzero" d="M1.6832,1.63056 L11.584,10.24 L1.68076,18.85148 C1.43252,18.61636 1.28,18.28208 1.28,17.9112 L1.28,2.56872 C1.28,2.1986 1.43496,1.86544 1.6832,1.63056 L1.6832,1.63056 Z M30.31924,1.62852 C30.56748,1.86364 30.72,2.19792 30.72,2.5688 L30.72,17.91128 C30.72,18.28136 30.56504,18.61456 30.3168,18.84944 L20.416,10.24004 L30.31924,1.62852 L30.31924,1.62852 Z M19.45836,11.07276 L28.8,19.2 L3.2,19.2 L12.54164,11.07276 L16,14.08 L19.45836,11.07276 Z M2.5646,0 C1.1482,0 0,1.14496 0,2.5524 L0,17.9276 C0,19.33724 1.13888,20.48 2.5646,20.48 L29.4354,20.48 C30.8518,20.48 32,19.33504 32,17.9276 L32,2.5524 C32,1.14276 30.86112,0 29.4354,0 L2.5646,0 Z M16,12.416 L3.2,1.28 L28.8,1.28 L16,12.416 Z" transform="translate(152 590)"/>
    <g fill="#D8D8D8" stroke="#7F7F7F" stroke-width="2" transform="translate(96 576)">
      <rect width="30" height="30" x="9" y="9"/>
      <rect width="30" height="30" x="9" y="9"/>
    </g>
    <g transform="translate(144 624)">
      <g fill="#7F7F7F" transform="translate(9 14)">
        <polygon points="18 0 30 0 30 2 18 2"/>
        <polygon points="18 6 30 6 30 8 18 8"/>
        <polygon points="0 12 30 12 30 14 0 14"/>
        <polygon points="0 18 23.226 18 23.226 20 0 20"/>
      </g>
      <rect width="12" height="12" x="9" y="9" fill="#D8D8D8" stroke="#7F7F7F" stroke-width="2"/>
    </g>
    <polygon fill="#FFF" fill-rule="nonzero" points="12 26.24 12 22 36 22 36 26.24" transform="translate(144 288)"/>
    <polygon fill="#FFF" fill-rule="nonzero" points="26.278 12 26.278 21.835 36 21.835 36 26.075 26.278 26.075 26.278 36 21.721 36 21.721 26.075 12 26.075 12 21.835 21.722 21.835 21.722 12" transform="translate(96 288)"/>
    <g transform="translate(0 816)">
      <circle cx="24" cy="24" r="18" fill="#047CBF"/>
      <polygon fill="#FFF" fill-rule="nonzero" stroke="#FFF" points="25.139 15 25.139 22.918 33 22.918 33 25.038 25.139 25.038 25.139 33 22.86 33 22.86 25.038 15 25.038 15 22.918 22.861 22.918 22.861 15"/>
    </g>
    <g stroke="#4E4C4B" stroke-width="1.5" transform="translate(48 816)">
      <g transform="translate(12 8)">
        <path fill="#FFF" fill-rule="nonzero" d="M25.1618234,0.75 L30.9464578,7.33366193 C31.0366516,7.59797417 31.25,8.31176313 31.25,9.14982455 L31.25,9.14982455 L31.25,22.1145145 C31.25,22.5168279 31.0876986,22.8809854 30.8248969,23.1445043 C30.5627526,23.4073641 30.2006062,23.57 29.8005172,23.57 L29.8005172,23.57 L2.19948276,23.57 C1.80118496,23.57 1.43870489,23.4063144 1.17577215,23.1431844 C0.91359242,22.880808 0.75,22.5188951 0.75,22.1188673 L0.75,22.1188673 L0.75,2.20113273 C0.75,1.80028907 0.912842266,1.43799484 1.17605829,1.17582675 C1.44059178,0.91234643 1.80625229,0.75 2.20993103,0.75 L2.20993103,0.75 L25.1618234,0.75 Z"/>
        <line x1="22.75" x2="22.75" y1="1.5" y2="8.5" stroke-linecap="square"/>
        <line x1="23.5" x2="30.5" y1="8.75" y2="8.75" stroke-linecap="square"/>
      </g>
      <g transform="translate(4 16)">
        <path fill="#FFF" fill-rule="nonzero" d="M25.1618234,0.75 L30.9464578,7.33366193 C31.0366516,7.59797417 31.25,8.31176313 31.25,9.14982455 L31.25,9.14982455 L31.25,22.1145145 C31.25,22.5168279 31.0876986,22.8809854 30.8248969,23.1445043 C30.5627526,23.4073641 30.2006062,23.57 29.8005172,23.57 L29.8005172,23.57 L2.19948276,23.57 C1.80118496,23.57 1.43870489,23.4063144 1.17577215,23.1431844 C0.91359242,22.880808 0.75,22.5188951 0.75,22.1188673 L0.75,22.1188673 L0.75,2.20113273 C0.75,1.80028907 0.912842266,1.43799484 1.17605829,1.17582675 C1.44059178,0.91234643 1.80625229,0.75 2.20993103,0.75 L2.20993103,0.75 L25.1618234,0.75 Z"/>
        <line x1="22.75" x2="22.75" y1="1.5" y2="8.5" stroke-linecap="square"/>
        <line x1="23.5" x2="30.5" y1="8.75" y2="8.75" stroke-linecap="square"/>
      </g>
    </g>
    <g fill-rule="nonzero" transform="translate(96 816)">
      <g transform="translate(8 6)">
        <path fill="#FFF" stroke="#4E4C4B" stroke-width="2" d="M3.0804607,7 L28.9195393,7 L26.9995455,31.7853748 C27.0089024,32.1233112 26.873147,32.4308212 26.6519841,32.6519841 C26.4379995,32.8659688 26.1431818,33 25.8181818,33 L25.8181818,33 L6.18181818,33 C5.85681818,33 5.56200054,32.8659688 5.34801587,32.6519841 C5.12685295,32.4308212 4.99109764,32.1233112 5.00045452,31.7853748 L5.00045452,31.7853748 L3.0804607,7 Z"/>
        <path fill="#4E4C4B" d="M20.3076923,0 C21.3230769,0 22.1538462,0.675 22.1538462,1.5 L22.1538462,1.5 L22.1538462,5 L30.1538462,5 C31.1692308,5 32,5.675 32,6.5 L32,6.5 L32,8 L0,8 L0,6.5 C0,5.675 0.830769231,5 1.84615385,5 L1.84615385,5 L9.84615385,5 L9.84615385,1.5 C9.84615385,0.675 10.6769231,0 11.6923077,0 L11.6923077,0 Z M20,2 L12,2 L12,5 L20,5 L20,2 Z"/>
      </g>
      <polygon fill="#820" points="25.139 19 25.139 24.918 31 24.918 31 27.038 25.139 27.038 25.139 33 22.86 33 22.86 27.038 17 27.038 17 24.918 22.861 24.918 22.861 19" transform="rotate(45 24 26)"/>
    </g>
    <g stroke="#000">
      <path fill="#FCFCFC" fill-opacity=".5" stroke-width="1.5" d="M28.2565778,10.8315945 L43.3748999,21.8156985 L37.6002147,39.5883521 L18.9129409,39.5883521 L13.1382557,21.8156985 L28.2565778,10.8315945 Z" transform="rotate(36 28.257 25.121)"/>
      <path fill="#FFF" fill-opacity=".4" stroke-width="3" d="M18.856511,6.85410197 L34.0931552,17.924172 L28.273275,35.8359216 L9.43974695,35.8359216 L3.61986672,17.924172 L18.856511,6.85410197 Z"/>
    </g>
    <path fill="#000" d="M40.2639678,15.4016504 L20.3765895,35.2890287 L17.7249391,32.6373782 L37.6123173,12.75 L40.2639678,15.4016504 Z M10.4329004,20.0420387 L20.3765895,29.9857278 L17.7249391,32.6373782 L7.78125,22.6936891 L10.4329004,20.0420387 Z" transform="translate(0 864)"/>
    <path fill="#FFF" d="M40.2639678,15.4016504 L20.3765895,35.2890287 L17.7249391,32.6373782 L37.6123173,12.75 L40.2639678,15.4016504 Z M10.4329004,20.0420387 L20.3765895,29.9857278 L17.7249391,32.6373782 L7.78125,22.6936891 L10.4329004,20.0420387 Z" transform="translate(96 864)"/>
    <rect width="29" height="29" x="9.5" y="9.5" fill="#FFF" stroke="#7F7F7F" stroke-width="3" rx="6" transform="translate(144 864)"/>
    <rect width="29" height="29" x="9.5" y="9.5" stroke="#7F7F7F" stroke-width="3" rx="6" transform="translate(48 864)"/>
    <g transform="translate(0 912)">
      <path fill="#047CBF" d="M0,24 C0,16.2680135 6.2680135,10 14,10 C14.6023794,10 33.3067116,10 33.9090909,10 C41.6410774,10 47.9090909,16.2680135 47.9090909,24 C47.9090909,31.7319865 41.6410774,38 33.9090909,38 L13.8160511,38 C6.16884452,37.9003433 0,31.6705771 0,24 Z"/>
      <use fill="#000" fill-opacity="1" filter="url(#icon_sprite-e)" xlink:href="#icon_sprite-f"/>
      <use fill="#FFF" fill-rule="evenodd" xlink:href="#icon_sprite-f"/>
    </g>
    <g transform="translate(48 912)">
      <path fill="#FFF" stroke="#CACACA" stroke-width="1.5" d="M33.9090909,10.75 C37.5679774,10.75 40.8804774,12.2330568 43.2782558,14.6308351 C45.6760341,17.0286135 47.1590909,20.3411135 47.1590909,24 C47.1590909,27.6588865 45.6760341,30.9713865 43.2782558,33.3691649 C40.8804774,35.7669432 37.5679774,37.25 33.9090909,37.25 L33.9090909,37.25 L13.8258241,37.2500637 C10.2045548,37.2028721 6.93361056,35.7031626 4.56896185,33.3070306 C2.20756565,30.9141945 0.75,27.6273125 0.75,24 C0.75,20.3411135 2.23305677,17.0286135 4.63083515,14.6308351 C7.02861353,12.2330568 10.3411135,10.75 14,10.75 L14,10.75 Z"/>
      <circle cx="14" cy="24" r="10" fill="#DDDBDB"/>
    </g>
    <g fill="#7F7F7F" transform="translate(144 672)">
      <g transform="rotate(45 -2.5 28.107)">
        <polygon points="-9 9 11 9 11 11 -9 11" transform="rotate(90 1 10)"/>
        <polygon points="0 18 20 18 20 20 0 20"/>
      </g>
      <g transform="scale(-1 1) rotate(45 -27.142 -31.385)">
        <polygon points="-9 9 11 9 11 11 -9 11" transform="rotate(90 1 10)"/>
        <polygon points="0 18 20 18 20 20 0 20"/>
      </g>
    </g>
    <g transform="translate(96 912)">
      <circle cx="24" cy="24" r="14.75" fill="#FFF" stroke="#CACACA" stroke-width="1.5"/>
      <use fill="#000" fill-opacity="1" filter="url(#icon_sprite-g)" xlink:href="#icon_sprite-h"/>
      <use fill="#047CBF" fill-rule="evenodd" xlink:href="#icon_sprite-h"/>
    </g>
    <g fill="#FFF" transform="translate(144 912)">
      <circle cx="24" cy="24" r="13.25" stroke="#CACACA" stroke-width="1.5"/>
      <circle cx="24" cy="24" r="10"/>
    </g>
    <polygon fill="#000" fill-rule="nonzero" points="26.278 12 26.278 21.835 36 21.835 36 26.075 26.278 26.075 26.278 36 21.721 36 21.721 26.075 12 26.075 12 21.835 21.722 21.835 21.722 12" transform="rotate(45 -1250.705 552)"/>
    <g transform="translate(0 960)">
      <rect width="26.5" height="26.5" x="10.75" y="10.75" stroke="#4E4C4B" stroke-width="1.5"/>
      <rect width="2" height="14" x="17" y="17" fill="#4E4C4B"/>
      <rect width="2" height="14" x="29" y="17" fill="#4E4C4B"/>
      <rect width="2" height="2" x="23" y="26" fill="#4E4C4B"/>
      <rect width="2" height="2" x="23" y="20" fill="#4E4C4B"/>
    </g>
    <g transform="translate(48 960)">
      <rect width="26.5" height="26.5" x="10.75" y="10.75" stroke="#4E4C4B" stroke-width="1.5"/>
      <path fill="#4E4C4B" d="M34.0573901,14 L34.0573901,22 L32,22 L31.9996362,17.528 L26.7184307,22.8102558 L25.2636362,21.3554614 L30.5606362,16.057 L26,16.0573901 L26,14 L34.0573901,14 Z"/>
      <path fill="#4E4C4B" d="M22.7937538,25 L22.7937538,33 L20.7363638,33 L20.736,28.528 L15.4547945,33.8102558 L14,32.3554614 L19.297,27.057 L14.7363638,27.0573901 L14.7363638,25 L22.7937538,25 Z" transform="rotate(180 18.397 29.405)"/>
    </g>
    <g transform="translate(96 960)">
      <rect width="26.5" height="26.5" x="10.75" y="10.75" stroke="#4E4C4B" stroke-width="1.5"/>
      <path fill="#4E4C4B" d="M33.0573901,15 L33.0573901,23 L31,23 L30.9996362,18.528 L25.7184307,23.8102558 L24.2636362,22.3554614 L29.5606362,17.057 L25,17.0573901 L25,15 L33.0573901,15 Z" transform="rotate(180 28.66 19.405)"/>
      <path fill="#4E4C4B" d="M23.7937538,24 L23.7937538,32 L21.7363638,32 L21.736,27.528 L16.4547945,32.8102558 L15,31.3554614 L20.297,26.057 L15.7363638,26.0573901 L15.7363638,24 L23.7937538,24 Z"/>
    </g>
    <g transform="translate(0 1008)">
      <rect width="26.5" height="26.5" x="10.75" y="10.75" stroke="#FFF" stroke-width="1.5"/>
      <rect width="2" height="14" x="17" y="17" fill="#FFF"/>
      <rect width="2" height="14" x="29" y="17" fill="#FFF"/>
      <rect width="2" height="2" x="23" y="26" fill="#FFF"/>
      <rect width="2" height="2" x="23" y="20" fill="#FFF"/>
    </g>
    <g transform="translate(96 1008)">
      <rect width="26.5" height="26.5" x="10.75" y="10.75" stroke="#FFF" stroke-width="1.5"/>
      <path fill="#FFF" d="M33.0573901,15 L33.0573901,23 L31,23 L30.9996362,18.528 L25.7184307,23.8102558 L24.2636362,22.3554614 L29.5606362,17.057 L25,17.0573901 L25,15 L33.0573901,15 Z" transform="rotate(180 28.66 19.405)"/>
      <path fill="#FFF" d="M23.7937538,24 L23.7937538,32 L21.7363638,32 L21.736,27.528 L16.4547945,32.8102558 L15,31.3554614 L20.297,26.057 L15.7363638,26.0573901 L15.7363638,24 L23.7937538,24 Z"/>
    </g>
    <g transform="translate(48 1008)">
      <rect width="26.5" height="26.5" x="10.75" y="10.75" stroke="#FFF" stroke-width="1.5"/>
      <path fill="#FFF" d="M34.0573901,14 L34.0573901,22 L32,22 L31.9996362,17.528 L26.7184307,22.8102558 L25.2636362,21.3554614 L30.5606362,16.057 L26,16.0573901 L26,14 L34.0573901,14 Z"/>
      <path fill="#FFF" d="M22.7937538,25 L22.7937538,33 L20.7363638,33 L20.736,28.528 L15.4547945,33.8102558 L14,32.3554614 L19.297,27.057 L14.7363638,27.0573901 L14.7363638,25 L22.7937538,25 Z" transform="rotate(180 18.397 29.405)"/>
    </g>
    <polygon fill="#FFF" fill-rule="nonzero" points="26.278 12 26.278 21.835 36 21.835 36 26.075 26.278 26.075 26.278 36 21.721 36 21.721 26.075 12 26.075 12 21.835 21.722 21.835 21.722 12" transform="rotate(45 -1226.705 609.941)"/>
    <g fill="#FFF" transform="translate(48 1104)">
      <polygon points="9 13 39 13 39 15 9 15"/>
      <polygon points="9 22 39 22 39 24 9 24"/>
      <polygon points="9 31 32.226 31 32.226 33 9 33"/>
    </g>
    <g fill="#FFF" transform="translate(96 1104)">
      <polygon points="17 13 39 13 39 15 17 15"/>
      <polygon points="17 22 39 22 39 24 17 24"/>
      <polygon points="17 31 34.032 31 34.032 33 17 33"/>
      <circle cx="10.5" cy="14.5" r="2.5"/>
      <circle cx="10.5" cy="23.5" r="2.5"/>
      <circle cx="10.5" cy="32.5" r="2.5"/>
    </g>
    <g fill="#FFF" transform="translate(144 1104)">
      <path d="M12.0573908 17.7301055L10.6921408 17.7301055 10.6921408 13.3651514 9 13.3651514 9 12.3364067C9.23715728 12.3428163 9.46629906 12.32519 9.6874322 12.2835273 9.90856535 12.2418645 10.1072617 12.1681546 10.2835273 12.0623952 10.4597928 11.9566359 10.6088151 11.817228 10.7305986 11.6441672 10.852382 11.4711065 10.9325015 11.2563863 10.9709595 11L12.0573908 11 12.0573908 17.7301055zM8.15383098 22.7208855C8.14101167 22.3363061 8.18587859 21.9789731 8.28843309 21.6488758 8.39098759 21.3187785 8.54481704 21.0303483 8.74992604 20.7835766 8.95503504 20.5368048 9.21301984 20.344518 9.52388817 20.2067104 9.83475651 20.0689028 10.1920895 20 10.5958978 20 10.9035613 20 11.1967987 20.0480717 11.4756188 20.1442165 11.7544388 20.2403614 11.9996045 20.3781669 12.2111232 20.5576373 12.4226418 20.7371077 12.5908928 20.9582375 12.7158811 21.2210334 12.8408694 21.4838293 12.9033626 21.7786691 12.9033626 22.1055616 12.9033626 22.4452734 12.8488813 22.7369084 12.7399172 22.9804753 12.630953 23.2240422 12.4867379 23.4403649 12.3072675 23.6294498 12.1277971 23.8185346 11.9242936 23.9899903 11.6967508 24.1438221 11.469208 24.2976539 11.2400662 24.4498809 11.0093186 24.6005078 10.778571 24.7511348 10.5542364 24.9129761 10.3363081 25.0860369 10.1183797 25.2590976 9.92609293 25.4609987 9.75944187 25.6917464L12.9418203 25.6917464 12.9418203 26.8647076 8 26.8647076C8 26.4737186 8.05608365 26.1340119 8.16825264 25.8455773 8.28042162 25.5571428 8.43264868 25.299158 8.62493837 25.0716152 8.81722806 24.8440724 9.04316505 24.6341593 9.30275614 24.4418696 9.56234722 24.2495799 9.83635592 24.0540884 10.1247905 23.855389 10.2722125 23.7528345 10.4292468 23.6486792 10.5958978 23.5429198 10.7625489 23.4371605 10.914776 23.320186 11.0525836 23.1919929 11.1903912 23.0637998 11.3057633 22.9195847 11.3987033 22.7593433 11.4916433 22.5991018 11.5381126 22.4164294 11.5381126 22.2113204 11.5381126 21.8844279 11.4435716 21.6296479 11.2544867 21.4469727 11.0654019 21.2642975 10.823441 21.1729612 10.5285968 21.1729612 10.3298974 21.1729612 10.1616465 21.2194306 10.0238389 21.3123706 9.88603126 21.4053106 9.77546634 21.5270922 9.69214081 21.6777192 9.60881528 21.8283461 9.54952685 21.9949946 9.51427374 22.1776699 9.47902063 22.3603451 9.46139434 22.5414151 9.46139434 22.7208855L8.15383098 22.7208855zM10.0195247 31.8554876C10.1669468 31.8683069 10.323981 31.8683069 10.4906321 31.8554876 10.6572832 31.8426683 10.812715 31.8058133 10.9569323 31.7449216 11.1011495 31.6840299 11.2197264 31.5958984 11.3126664 31.4805246 11.4056064 31.3651508 11.4520757 31.2113213 11.4520757 31.0190317 11.4520757 30.7305971 11.3559323 30.5094673 11.1636426 30.3556355 10.971353 30.2018038 10.7502231 30.1248891 10.5002465 30.1248891 10.1541251 30.1248891 9.89293551 30.2386588 9.71666996 30.4662016 9.54040441 30.6937444 9.45547774 30.9805722 9.46188739 31.3266936L8.16393848 31.3266936C8.17675779 30.9805722 8.239251 30.6649013 8.35141999 30.3796716 8.46358897 30.0944419 8.6206232 29.8492762 8.82252737 29.6441672 9.02443155 29.4390582 9.26639244 29.2804216 9.54841732 29.1682526 9.8304422 29.0560837 10.1445106 29 10.4906321 29 10.7598377 29 11.0290392 29.0400598 11.2982448 29.1201805 11.5674503 29.2003012 11.8094112 29.3204804 12.0241347 29.4807218 12.2388582 29.6409632 12.4135187 29.8364548 12.5481215 30.0672024 12.6827243 30.2979501 12.7500247 30.5639468 12.7500247 30.8652007 12.7500247 31.1920931 12.6715075 31.4805233 12.514471 31.7304999 12.3574344 31.9804765 12.121883 32.1503299 11.8078099 32.2400651L11.8078099 32.2592939C12.17957 32.3426195 12.4712049 32.5220872 12.6827236 32.7977024 12.8942423 33.0733176 13 33.40341 13 33.7879893 13 34.1405204 12.9310972 34.4545889 12.7932896 34.7302041 12.655482 35.0058193 12.4712072 35.2365635 12.2404595 35.4224435 12.0097119 35.6083236 11.7437151 35.7493339 11.4424613 35.8454787 11.1412075 35.9416236 10.827139 35.9896953 10.5002465 35.9896953 10.1220768 35.9896953 9.77756294 35.935214 9.46669461 35.8262499 9.15582628 35.7172857 8.89143192 35.5586491 8.67350361 35.3503353 8.45557529 35.1420214 8.28732434 34.8872414 8.16874569 34.5859876 8.05016705 34.2847337 7.9940834 33.9386175 8.00049306 33.5476284L9.29844197 33.5476284C9.30485163 33.7270988 9.33369465 33.8985545 9.3849719 34.0620008 9.43624915 34.225447 9.5099591 34.3664573 9.60610394 34.485036 9.70224879 34.6036146 9.82242804 34.6981556 9.96664531 34.7686619 10.1108626 34.8391681 10.2823183 34.8744207 10.4810177 34.8744207 10.7886812 34.8744207 11.0482683 34.7798796 11.259787 34.5907948 11.4713057 34.4017099 11.5770634 34.1437251 11.5770634 33.8168327 11.5770634 33.5604464 11.5273893 33.3649548 11.4280396 33.230352 11.32869 33.0957492 11.2021012 32.9980035 11.0482694 32.9371117 10.8944377 32.87622 10.7261867 32.8409674 10.5435115 32.8313529 10.3608363 32.8217384 10.1861758 32.8169313 10.0195247 32.8169313L10.0195247 31.8554876z"/>
      <polygon points="17 13 39 13 39 15 17 15"/>
      <polygon points="17 22 39 22 39 24 17 24"/>
      <polygon points="17 31 34.032 31 34.032 33 17 33"/>
    </g>
    <g fill="#FFF" fill-rule="nonzero" transform="translate(13 1117)">
      <path d="M9.44588728,13.3571429 C9.15358336,13.3571429 8.86136729,13.2484469 8.63837301,13.0310121 C6.54911376,10.9937976 6.54911376,7.67899844 8.63837301,5.64178394 L12.8549283,1.53035204 C13.8670773,0.543479904 15.2126855,0 16.6439865,0 C18.0752874,0 19.4209395,0.543479904 20.4330885,1.53030921 C22.5223038,3.56752372 22.5223038,6.88232286 20.4330885,8.91953736 L18.5056396,10.7989328 C18.059651,11.2338024 17.3366435,11.2338024 16.890611,10.7989328 C16.4446664,10.3641061 16.4446664,9.65903835 16.890611,9.22416877 L18.81806,7.34477329 C20.0167915,6.17588464 20.0167915,4.27396194 18.81806,3.10507329 C18.2373612,2.53885202 17.4652485,2.22702561 16.6439865,2.22702561 C15.8227245,2.22702561 15.0506556,2.53885202 14.469913,3.10511611 L10.2533576,7.21650518 C9.05458216,8.38539384 9.05458216,10.2873594 10.2533576,11.456248 C10.6993462,11.8910748 10.6993023,12.5961425 10.2533576,13.0310121 C10.0304512,13.248404 9.73810335,13.3571429 9.44588728,13.3571429 L9.44588728,13.3571429 Z"/>
      <path d="M5.35598483,22 C3.92464472,22 2.57899703,21.4565194 1.56693925,20.4696889 C-0.522313083,18.432472 -0.522313083,15.1176689 1.56693925,13.0804519 L3.49433788,11.201097 C3.94032498,10.7662697 4.6634179,10.7662697 5.10936108,11.201097 C5.55534817,11.6359243 5.55534817,12.3409929 5.10936108,12.775863 L3.18196244,14.6552179 C1.98319094,15.8241079 1.98319094,17.7260757 3.18196244,18.8949658 C3.76261533,19.4611449 4.53472555,19.7729717 5.35598483,19.7729717 C6.17724411,19.7729717 6.9493104,19.4611449 7.53009505,18.8948802 L11.7466364,14.7834861 C12.945364,13.6145961 12.945364,11.7126283 11.7466364,10.5437382 C11.3006493,10.1088681 11.3006933,9.40384235 11.7466364,8.96897224 C12.1925796,8.53414497 12.9156725,8.53414497 13.3616596,8.96901507 C15.450868,11.0061892 15.450868,14.3209923 13.3617036,16.3582093 L9.14511825,20.4696461 C8.13292871,21.4565623 6.78728101,22 5.35598483,22 L5.35598483,22 Z"/>
    </g>
    <path fill="#4E4C4B" d="M38,20.5 L27.5,20.5 L31.4246484,16.5753516 C29.4414062,14.5922188 26.8046484,13.5 24,13.5 C21.1953516,13.5 18.5585938,14.5922188 16.5753516,16.5753516 C14.5922187,18.5585938 13.5,21.1953516 13.5,24 C13.5,26.8046484 14.5922187,29.4414062 16.5753516,31.4246484 C18.5585938,33.4077812 21.1953516,34.5 24,34.5 C26.8046484,34.5 29.4414062,33.4077812 31.4245937,31.4245937 C31.5901875,31.2590547 31.7488906,31.0884844 31.9019062,30.9141406 L34.5356563,33.2187266 C31.9695547,36.1490469 28.2010938,38 24,38 C16.2680078,38 10,31.7319922 10,24 C10,16.2680078 16.2680078,10 24,10 C27.8660234,10 31.3655313,11.5675078 33.898875,14.101125 L38,10 L38,20.5 Z" transform="translate(95 240)"/>
    <path fill="#4E4C4B" fill-rule="nonzero" d="M39.2901448,35.4030013 L29.4542879,25.5903441 C32.193448,21.1400088 31.6398561,15.2400947 27.7751123,11.3857507 C23.2527781,6.87141642 15.9160848,6.87141642 11.3929506,11.3857507 C6.86901645,15.8984851 6.86901645,23.2183786 11.3929506,27.7335129 C14.8289007,31.508658 21.1536086,31.918252 25.5431448,29.4214884 L35.4118012,39.2701451 C36.8349805,40.6893244 37.9229647,39.754138 38.8149517,38.866151 C39.7061387,37.9773639 40.7109241,36.8245807 39.2901448,35.4030013 Z M24.9183539,24.837555 C21.951197,27.795112 17.140067,27.795112 14.1737102,24.837555 C11.2065534,21.8767981 11.2065534,17.0768679 14.1737102,14.116911 C17.140067,11.1561541 21.951197,11.1561541 24.9183539,14.116911 C27.8855107,17.0768679 27.8855107,21.8767981 24.9183539,24.837555 Z" transform="translate(144 240)"/>
    <path fill="#FFF" fill-rule="nonzero" d="M39.2901448,35.4030013 L29.4542879,25.5903441 C32.193448,21.1400088 31.6398561,15.2400947 27.7751123,11.3857507 C23.2527781,6.87141642 15.9160848,6.87141642 11.3929506,11.3857507 C6.86901645,15.8984851 6.86901645,23.2183786 11.3929506,27.7335129 C14.8289007,31.508658 21.1536086,31.918252 25.5431448,29.4214884 L35.4118012,39.2701451 C36.8349805,40.6893244 37.9229647,39.754138 38.8149517,38.866151 C39.7061387,37.9773639 40.7109241,36.8245807 39.2901448,35.4030013 Z M24.9183539,24.837555 C21.951197,27.795112 17.140067,27.795112 14.1737102,24.837555 C11.2065534,21.8767981 11.2065534,17.0768679 14.1737102,14.116911 C17.140067,11.1561541 21.951197,11.1561541 24.9183539,14.116911 C27.8855107,17.0768679 27.8855107,21.8767981 24.9183539,24.837555 Z" transform="translate(192 240)"/>
    <g transform="translate(96 336)">
      <circle cx="24" cy="24" r="20" fill="#8DC709" fill-rule="nonzero"/>
      <path fill="#FFF" d="M36,17.9591837 L21.3061224,32.6530612 L19.3469388,30.6938776 L34.0408163,16 L36,17.9591837 Z M13.9591837,21.3877551 L21.3061224,28.7346939 L19.3469388,30.6938776 L12,23.3469388 L13.9591837,21.3877551 Z"/>
    </g>
    <g transform="translate(144 336)">
      <circle cx="24" cy="24" r="20" fill="#047CBF" fill-rule="nonzero"/>
      <path fill="#FFF" d="M22,29.6862745 L26.3977591,29.6862745 L26.3977591,34 L22,34 L22,29.6862745 Z M26.2577031,18.9371429 L25.1652661,26.8571429 L23.1764706,26.8571429 L22.1120448,18.9371429 L22.1120448,14 L26.2577031,14 L26.2577031,18.9371429 Z"/>
    </g>
    <g fill-rule="nonzero" transform="translate(192 336)">
      <circle cx="24" cy="24" r="20" fill="#047CBF"/>
      <path fill="#FFF" d="M29.9922689,16.3571429 C29.9922689,20.2801339 27.1485189,23.1216518 25.1068522,24.5 C27.1485189,25.8783482 29.9922689,28.7198661 29.9922689,32.6428571 L31.6666667,32.6428571 C31.8541667,32.6428571 32,32.7912946 32,32.9821429 L32,33.6607143 C32,33.8515625 31.8541667,34 31.6666667,34 L16.3333333,34 C16.1458333,34 16,33.8515625 16,33.6607143 L16,32.9821429 C16,32.7912946 16.1458333,32.6428571 16.3333333,32.6428571 L18.0651855,32.6428571 C18.0651855,28.7198661 20.9089355,25.8783482 22.9506022,24.5 C20.9089355,23.1216518 18.0651855,20.2801339 18.0651855,16.3571429 L16.3333333,16.3571429 C16.1458333,16.3571429 16,16.2087054 16,16.0178571 L16,15.3392857 C16,15.1484375 16.1458333,15 16.3333333,15 L31.6666667,15 C31.8541667,15 32,15.1484375 32,15.3392857 L32,16.0178571 C32,16.2087054 31.8541667,16.3571429 31.6666667,16.3571429 L29.9922689,16.3571429 Z"/>
    </g>
    <g fill="#4E4C4B" transform="translate(192 960)">
      <path d="M15,10.9875168 L12.9426099,10.9875168 L12.9425339,3.511 L2.7177256,13.7370689 L1.99032837,14.4644661 L0.535533906,13.0096716 L1.26293114,12.2822744 L11.4865339,2.057 L4.3980017,2.05739006 L4.3980017,-6.25277607e-13 L15,-6.25277607e-13 L15,10.9875168 Z" transform="rotate(45 2.515 41.556)"/>
      <polygon fill-rule="nonzero" points="14 14 33 14 33 34 22.951 34 22.951 36 35 36 35 12 12 12" transform="rotate(180 23.5 24)"/>
    </g>
    <g transform="translate(144 960)">
      <rect width="22" height="22" x="13" y="13" stroke="#4E4C4B" stroke-width="2"/>
      <circle cx="24.5" cy="24.5" r="3.5" fill="#4E4C4B"/>
    </g>
    <g fill="#FFF" transform="translate(192 1008)">
      <path d="M15,10.9875168 L12.9426099,10.9875168 L12.9425339,3.511 L2.7177256,13.7370689 L1.99032837,14.4644661 L0.535533906,13.0096716 L1.26293114,12.2822744 L11.4865339,2.057 L4.3980017,2.05739006 L4.3980017,-6.25277607e-13 L15,-6.25277607e-13 L15,10.9875168 Z" transform="rotate(45 2.515 41.556)"/>
      <polygon fill-rule="nonzero" points="14 14 33 14 33 34 22.951 34 22.951 36 35 36 35 12 12 12" transform="rotate(180 23.5 24)"/>
    </g>
    <g transform="translate(144 1008)">
      <rect width="22" height="22" x="13" y="13" stroke="#FFF" stroke-width="2"/>
      <circle cx="24.5" cy="24.5" r="3.5" fill="#FFF"/>
    </g>
  </g>
</svg>
